<svg xmlns="http://www.w3.org/2000/svg" viewBox="0 0 37.68 30.08"><defs><style>.cls-1{fill:#173042;}</style></defs><g id="Layer_2" data-name="Layer 2"><g id="icons"><path class="cls-1" d="M25.63,18.08H16.68l4,12h2.19a3,3,0,0,1-.19-1v-3a3,3,0,0,1,3-3h1.61Z"></path><path class="cls-1" d="M36.68,25.08h-11a1,1,0,0,0-1,1v3a1,1,0,0,0,1,1h11a1,1,0,0,0,1-1v-3A1,1,0,0,0,36.68,25.08Zm-2.33-2-.75-2.26a4,4,0,0,0-3.8-2.74H27.74l1.66,5ZM14.53,17.94a4,4,0,0,1-2.78-2.59L6.84.68a1,1,0,0,0-1-.68H1A1,1,0,0,0,.05,1.32L8.31,26A6,6,0,0,0,14,30.08h4.57L14.79,18.71Z"></path></g></g></svg>