<svg xmlns="http://www.w3.org/2000/svg" viewBox="0 0 37.38 37.32"><defs><style>.cls-1{fill:#173042;}</style></defs><g id="Layer_2" data-name="Layer 2"><g id="icons"><path class="cls-1" d="M5.55,29.61a1,1,0,0,0-1.47.06l-1,1.17a1.5,1.5,0,0,0-2.12,0l-.53.53a1.49,1.49,0,0,0,0,2.12l3.38,3.38a1.51,1.51,0,0,0,2.12,0l.53-.53a1.49,1.49,0,0,0,0-2.12l1.18-1a1,1,0,0,0,.06-1.47ZM35.72,1.49a5.61,5.61,0,0,0-8.15.58L12.1,20.44a1,1,0,0,0,.06,1.29l3.43,3.43a1,1,0,0,0,1.29.05L35.43,9.59A5.46,5.46,0,0,0,35.72,1.49Z"></path><path class="cls-1" d="M7.94,25.88A1.5,1.5,0,1,0,5.82,28l3,3a1.49,1.49,0,0,0,1.06.44A1.51,1.51,0,0,0,10.94,31a1.49,1.49,0,0,0,0-2.12Zm6,0-3-3A1.5,1.5,0,1,0,8.82,25l3,3a1.49,1.49,0,0,0,1.06.44A1.51,1.51,0,0,0,13.94,28,1.49,1.49,0,0,0,13.94,25.88Z"></path></g></g></svg>