<svg xmlns="http://www.w3.org/2000/svg" viewBox="0 0 33.42 33.42"><defs><style>.cls-1{fill:#173042;}</style></defs><g id="Layer_2" data-name="Layer 2"><g id="icons"><path class="cls-1" d="M28.54,4.88A16.62,16.62,0,0,0,19.81.29a.49.49,0,0,0-.57.36,27.43,27.43,0,0,1-7,11.59,27.43,27.43,0,0,1-11.59,7,.49.49,0,0,0-.36.57A16.62,16.62,0,0,0,13.61,33.13a.51.51,0,0,0,.57-.36A28.13,28.13,0,0,1,32.77,14.18a.51.51,0,0,0,.36-.57A16.62,16.62,0,0,0,28.54,4.88Z"></path><path class="cls-1" d="M32.75,16.79a25.9,25.9,0,0,0-16,16,.5.5,0,0,0,.49.66A16.65,16.65,0,0,0,33.41,17.28.5.5,0,0,0,32.75,16.79ZM16.14,0A16.69,16.69,0,0,0,0,16.14a.51.51,0,0,0,.66.49,25.31,25.31,0,0,0,9.82-6.15A25.31,25.31,0,0,0,16.63.66.51.51,0,0,0,16.14,0Z"></path></g></g></svg>