<svg xmlns="http://www.w3.org/2000/svg" viewBox="0 0 35.97 36"><defs><style>.cls-1{fill:#173042;}</style></defs><g id="Layer_2" data-name="Layer 2"><g id="icons"><path class="cls-1" d="M11.51,22.05a27.34,27.34,0,0,1-3.86-5.63A.49.49,0,0,0,7,16.21a30.74,30.74,0,0,1-6.6,2.61.5.5,0,0,0-.38.52A18,18,0,0,0,4,29.43a.51.51,0,0,0,.75,0l6.73-6.73A.5.5,0,0,0,11.51,22.05Zm1.72-1.82a.51.51,0,0,0,.74,0L29.39,4.83a.51.51,0,0,0,0-.75A17.74,17.74,0,0,0,22.29.54a.49.49,0,0,0-.59.32,18,18,0,0,1-.94,2.22,31,31,0,0,1-9.85,10.73h0c-.31.22-.63.43-.95.63a.5.5,0,0,0-.18.65A25.14,25.14,0,0,0,13.23,20.23Zm6.33,8.1a27.23,27.23,0,0,1-5.62-3.85.5.5,0,0,0-.68,0L6.52,31.23a.52.52,0,0,0,0,.75,17.8,17.8,0,0,0,10.09,4,.49.49,0,0,0,.51-.37A30.22,30.22,0,0,1,19.77,29,.49.49,0,0,0,19.56,28.33ZM35.44,13.7A17.8,17.8,0,0,0,31.9,6.63a.5.5,0,0,0-.74,0L15.74,22a.51.51,0,0,0,0,.74,25.35,25.35,0,0,0,5.13,3.45.52.52,0,0,0,.65-.18c.2-.32.41-.64.64-1,3.84-5.48,8.59-9.28,12.93-10.78A.5.5,0,0,0,35.44,13.7Z"></path><path class="cls-1" d="M7.26,3.54A.49.49,0,0,0,7.05,4a25.26,25.26,0,0,0,1.54,8.4c.3-.2.6-.39.89-.6h0a28.2,28.2,0,0,0,9.05-9.82,14.58,14.58,0,0,0,.8-1.87C18.87,0,18.42,0,18,0A17.85,17.85,0,0,0,7.26,3.54ZM4.76,7.07a.5.5,0,0,0-.89-.26A18,18,0,0,0,.1,15.56a.51.51,0,0,0,.65.55A30.41,30.41,0,0,0,6,13.89a.5.5,0,0,0,.23-.62A27.77,27.77,0,0,1,4.76,7.07ZM35.27,16.9c-3.66,1.51-7.78,4.94-11.05,9.61-.2.29-.39.59-.59.89A25.5,25.5,0,0,0,32,28.94a.55.55,0,0,0,.43-.21A18,18,0,0,0,36,17.35.5.5,0,0,0,35.27,16.9ZM28.92,31.23a27.38,27.38,0,0,1-6.2-1.51.52.52,0,0,0-.62.24,29,29,0,0,0-2.22,5.29.5.5,0,0,0,.54.64,17.86,17.86,0,0,0,8.76-3.77A.5.5,0,0,0,28.92,31.23Z"></path></g></g></svg>