<svg xmlns="http://www.w3.org/2000/svg" viewBox="0 0 39.02 39.04"><defs><style>.cls-1{fill:#173042;}</style></defs><g id="Layer_2" data-name="Layer 2"><g id="icons"><path class="cls-1" d="M35.4,3.61A13.28,13.28,0,0,0,21.62.79l1.81,3.62A11.2,11.2,0,0,1,26.38,4,8.44,8.44,0,0,1,35,13.32a12,12,0,0,1-3.59,7.62c-4.32,4.32-10.83,4.85-14.51,1.17a8.72,8.72,0,0,1-2.43-6.88,11.53,11.53,0,0,1,1.11-4.16L12.47,9.51,12,9.29A15.29,15.29,0,0,0,10.48,15a12.88,12.88,0,0,0,2.27,8.39L9.09,27a3,3,0,0,0-2.18.88l-6,6a3,3,0,1,0,4.24,4.24l6-6A2.94,2.94,0,0,0,12,29.76l3.57-3.57a12.83,12.83,0,0,0,7.52,2.36,16,16,0,0,0,11.15-4.78A16,16,0,0,0,39,13.58,12.65,12.65,0,0,0,35.4,3.61Z"></path><path class="cls-1" d="M19.24,1.62,13.58,7.28l5.66,2.83,2.83-2.83Zm5.28,7.49a4.33,4.33,0,0,0-.47-.4l-3.38,3.38a3.47,3.47,0,0,0,.4.46C22.26,13.74,24,13.94,25,13S25.71,10.3,24.52,9.11Z"></path></g></g></svg>