<svg xmlns="http://www.w3.org/2000/svg" viewBox="0 0 141.28 283.11"><defs><style>      .uuid-5dd66a1d-3858-44c1-8342-40ee1c240bf5 {        fill: none;      }      .uuid-5dd66a1d-3858-44c1-8342-40ee1c240bf5, .uuid-828e37ea-1e88-4f97-a28f-3f598d52223b, .uuid-08e287f3-4f90-4dcb-9ae8-d808b53f8e78, .uuid-256585f3-987d-4741-8f69-54816418a78b, .uuid-22f7d511-21d8-47cf-a839-abe61f09a2a7, .uuid-effd8018-edd1-4d44-a222-4ce624467f40, .uuid-aaefca90-cf5c-4b55-94b5-b358507e6359, .uuid-59eb21d7-add0-4453-a2c0-75fcfe3350ed, .uuid-9c9ba743-a5ad-4c71-8b40-31e65f156059 {        stroke-width: 0px;      }      .uuid-828e37ea-1e88-4f97-a28f-3f598d52223b {        mix-blend-mode: multiply;        opacity: .3;      }      .uuid-828e37ea-1e88-4f97-a28f-3f598d52223b, .uuid-aaefca90-cf5c-4b55-94b5-b358507e6359 {        fill: #ff8b2a;      }      .uuid-08e287f3-4f90-4dcb-9ae8-d808b53f8e78 {        opacity: .5;      }      .uuid-08e287f3-4f90-4dcb-9ae8-d808b53f8e78, .uuid-effd8018-edd1-4d44-a222-4ce624467f40 {        fill: #29abe2;      }      .uuid-461dbe34-dbf4-477d-bafd-002604c93637 {        isolation: isolate;      }      .uuid-256585f3-987d-4741-8f69-54816418a78b {        fill: #f7dcb5;      }      .uuid-22f7d511-21d8-47cf-a839-abe61f09a2a7 {        fill: #534741;      }      .uuid-59eb21d7-add0-4453-a2c0-75fcfe3350ed {        fill: #ffedd0;      }      .uuid-9c9ba743-a5ad-4c71-8b40-31e65f156059 {        fill: #0071bc;      }    </style></defs><g class="uuid-461dbe34-dbf4-477d-bafd-002604c93637"><g id="uuid-49c190f5-d73a-4d3a-8f50-12281df16685" data-name="Layer 2"><g id="uuid-8de62ff5-378c-438d-825b-a002db4d00b3" data-name="objects"><g><path class="uuid-aaefca90-cf5c-4b55-94b5-b358507e6359" d="M124.07,170.78c-.34,3.66-.69,7.31-1,10.94-.77,8.98-1.8,18.09-2.79,26.91-.82,7.28-1.67,14.8-2.37,22.22-.98,10.39-2,18.97-3.21,26.99-.22,1.45-.33,2.93-.44,4.36-.06.82-.12,1.64-.2,2.47-.45,4.64-3.69,5.21-7.55,5.44-12.37.74-24.57.86-35.9.88-11.34-.02-23.54-.13-35.91-.88-3.86-.23-7.09-.8-7.55-5.44-.08-.83-.14-1.65-.2-2.47-.11-1.43-.22-2.9-.44-4.36-1.21-8.02-2.23-16.59-3.21-26.99-.7-7.41-1.55-14.93-2.37-22.21-1-8.81-2.03-17.93-2.79-26.91-.31-3.63-.65-7.28-1-10.94-1.19-12.7-2.43-25.83-2.25-38.67,0-.12.05-.23.13-.31.08-.08.19-.12.3-.12.97.03,1.93.06,2.89.1l2.26.11c4.92.24,10.02.49,15.03.63,9.73.29,19.64.26,29.21.23h5.88s5.88,0,5.88,0c9.58.03,19.48.05,29.21-.23,5.01-.15,10.1-.39,15.03-.63l2.26-.11c.96-.05,1.93-.08,2.89-.1.11,0,.22.04.3.12.08.08.13.19.13.31.18,12.84-1.06,25.97-2.25,38.67Z"></path><path class="uuid-828e37ea-1e88-4f97-a28f-3f598d52223b" d="M18.11,148.97c3.09,2.42,6.27,3.69,10.14,4.2,1.13.15,3.39.15,4.1,1.33.67,1.11.08,3.18.13,4.4.22,5.15,2.68,9.99,7.41,12.34,10.52,5.23,23.22-2.77,29.41-11.12.11-.15.37-.18.53-.1,4.06,2.22,9.71,3.47,12.53-1.22.16-.26.45-.31.69-.13,4.89,3.76,8.55,9.16,15.01,10.33,6.91,1.25,12.8-3.43,17.07-8.32,2.13-2.43,4.26-5.08,5.77-7.95,1.05-1.99,1.62-3.97,1.74-6.2.09-1.54,0-3.16.48-4.65.52-1.64,1.7-2.56,3.16-3.15.04-2.2.07-4.41.04-6.6,0-.12-.05-.23-.13-.31-.08-.08-.2-.12-.3-.12-.97.03-1.93.06-2.89.1l-2.26.11c-4.92.24-10.02.49-15.03.63-9.73.29-19.63.26-29.21.23h-5.88s-5.88,0-5.88,0c-9.58.03-19.48.05-29.21-.23-5.01-.15-10.1-.39-15.03-.63l-2.26-.11c-.96-.05-1.93-.08-2.89-.1-.11,0-.22.04-.3.12-.08.08-.13.19-.13.31-.06,4.66.06,9.35.3,14.05.85,1.03,1.83,1.96,2.9,2.8Z"></path><path class="uuid-59eb21d7-add0-4453-a2c0-75fcfe3350ed" d="M130.56,123.11c-.43-8.02-4.71-14.94-11.2-16.8.49-3.61-.45-7.57-2.53-10.94-1.97-3.19-4.83-6.34-8.33-7.8-1.86-.77-3.75-.97-5.63-.83-.63-5.41-2.95-10.71-6.8-14.24-6.84-6.28-16.21-4.3-24.6-2.78-.58-.43-1.31-.74-2.23-.87-9.78-1.43-19.07-.72-26.57,6.49-2.05,1.97-3.68,4.27-4.9,6.77-5.75,1.56-10.36,7.76-11.11,14.17-7.07,2.48-12.07,11.42-13.87,18.18-1.76,6.62-.49,12.12,2.69,16.58.31,8.23,2.91,14.74,12.16,16.68,3.35.7,6.59.54,9.48-.36-.43,8.35,0,17.49,8.48,20.72,5.75,2.19,12.51-.27,16.25-4.98,1.82-2.29,2.82-4.89,3.37-7.61,2.07,1.14,4.38,1.9,6.9,2.15,4.68.47,8.65-1.14,11.62-4.01,3.22,3.43,7,5.67,12.87,6.27,8.15.83,15.86-2.97,19.71-10.31,1.83-3.48,4.01-9.14,3.67-13.92,6.15-1.77,10.99-5.32,10.6-12.57Z"></path><path class="uuid-256585f3-987d-4741-8f69-54816418a78b" d="M82.58,86.6c-2.02-1.17-4.78.48-6.33,1.66-.94.71-1.88,1.51-2.56,2.48-.54.77-.67,1.45-.81,2.19-.13.28.13.48.01.79-2.65-1.25-4.85-.29-6.04,1.4-1.62-1.41-2.76-3.2-4.66-4.35-.83-.5-3.12-1.56-3.98-.61-.62.68.03,1.36.72,1.7.82.41,1.96.45,2.8.8.7.29,1.41.66,2.04,1.08.96.64,1.65,1.59,2.63,2.15.03.02.05.05.08.07.08.07.17.09.25.1.02,0,.03.02.05.03.21.09.48.07.6-.16.95-1.8,3.78-1.94,5.32-1.07.27.15.55,0,.65-.26.16-.41.25-.82.35-1.23,1.71-3.21,5.13-3.08,8.39-4.3,1.28-.48,1.91-1.64.49-2.46Z"></path><path class="uuid-256585f3-987d-4741-8f69-54816418a78b" d="M58.23,72.71c-.94-1.11-2.58-.98-4.12-.33-2.19.41-4.37,1.38-5.54,3.26-.73,1.17-.71,2.64.73,3.22,1.42.58,3.18,0,4.51-.58,1.63-.71,6.58-3.02,4.43-5.56Z"></path><path class="uuid-256585f3-987d-4741-8f69-54816418a78b" d="M46.69,80.14c-.18-.75-.83-1.21-1.55-1.22-.43-.1-.89.04-1.26.34-.56.46-.79,1.29-.57,1.98.31.98,1.37,1.33,2.27.98.82-.32,1.32-1.21,1.11-2.08Z"></path><path class="uuid-256585f3-987d-4741-8f69-54816418a78b" d="M55.95,101.05c-.8-1.98-2.8-4.27-4.99-4.6-2.84-.43-4.67.56-6.49,2.39-1.12-1.89-3.38-2.39-5.64-1.96-2.68.51-3.23,2.79-3.98,5.05-.18.55.65.76.85.24.91-2.39,4.28-2.99,6.54-2.31.83.25,1.44.96,2.32.82.45-.07.76-.48,1.13-.69,1.38-.78,3-1.06,4.55-.73,1.77.37,3.63,1.13,4.83,2.5.27.31.66.07.73-.25.15-.09.23-.25.15-.46Z"></path><path class="uuid-256585f3-987d-4741-8f69-54816418a78b" d="M109.58,93.39c-.69-2.14-4.22-3.73-6.36-3.67-.13,0-.24.04-.36.06-1.35-.13-2.56.24-3.09,1.6-.98,2.51,3.13,4.2,4.9,4.93,1.13.47,2.53.87,3.7.28,1.15-.59,1.6-2,1.21-3.19Z"></path><path class="uuid-256585f3-987d-4741-8f69-54816418a78b" d="M98.27,83.43c-.06-.12-.13-.24-.22-.34-.89-1.01-2.36-.65-3.03.4-.56.89-.58,2.09.09,2.93.86,1.09,2.77,1.32,3.59.05.6-.94.36-2.27-.42-3.04Z"></path><path class="uuid-256585f3-987d-4741-8f69-54816418a78b" d="M115.45,136.35c-.5-.5-1.34-.66-1.86-.03-2.2,2.7-4.18,5.4-7.14,7.34-2.83,1.84-6.08,2.6-9.03,4.14-2.85,1.49-4.89,4.88-1.43,7.17,3.48,2.29,9.38-.63,12.28-2.75,4.55-3.32,6.7-9.04,7.99-14.32.19-.76-.25-1.31-.81-1.54Z"></path><path class="uuid-256585f3-987d-4741-8f69-54816418a78b" d="M79.16,149.97c-1.04.09-2.11.73-2.81,1.49-.4.43-.49,1.06-.22,1.56.03.27.14.54.36.74,1.48,1.38,4.97.84,4.99-1.57.01-1.3-1.01-2.33-2.32-2.22Z"></path><path class="uuid-256585f3-987d-4741-8f69-54816418a78b" d="M61.19,154.89c-.32-1.93-1.96-3.47-4.1-2.55-1.03.44-1.54,1.36-2.05,2.32-1.03,1.92-2.33,3.43-4.36,4.34-2.05.92-4.97,1.45-4.55,4.42.3,2.08,2.54,2.61,4.32,2.67,5.82.18,10.74-4.5,11.06-10.28.02-.4-.11-.7-.32-.91Z"></path><path class="uuid-256585f3-987d-4741-8f69-54816418a78b" d="M110.02,116.65c-1.25-1.98-3.41-2.7-5.63-3.04-2.93-.45-6.19-.69-9.05.2-2.42.75-4.87,2.4-6.6,4.25-1.85,1.98-2.41,4.45-2.74,7.05-.5-.38-.9-.96-1.49-1.24-.62-.3-1.35-.42-2.03-.52-1.71-.23-3.64-.32-5.28.3-3.01,1.14-5.07,3.94-5.18,7.12-.01.42.64.63.82.22.83-1.83,3.76-3.44,5.59-3.99,2.2-.66,4.73-.5,6.65.86,1.24.88,2.14,2.58,3.1.62,1.87-3.84,5.57-6.52,9.25-8.6,2.05-1.16,4.29-2.22,6.66-2.43,1.64-.14,3.78-.35,5.33.24.36.14.58-.21.52-.52.14-.12.21-.32.08-.52Z"></path><polygon class="uuid-5dd66a1d-3858-44c1-8342-40ee1c240bf5" points="70.75 49.05 70.75 49.05 70.75 49.05 70.75 49.05"></polygon><path class="uuid-22f7d511-21d8-47cf-a839-abe61f09a2a7" d="M70.69,49.48s-.1,0-.11,0c-15.48.23-28.71,5.16-39.42,14.66-4.96,4.4-8.24,9.48-11.72,14.86-.95,1.46-1.9,2.95-2.91,4.44-3.66,5.42-6.08,12.53-6.64,19.52-.02.2-.17.37-.38.4-3.32.49-6.38,2.99-7.29,5.95-.02.08-.07.15-.13.2-.12.11-.21.25-.25.42C.14,116.26,0,122.54,0,130.08c0,.1.02.2.05.31.03.09.03.18,0,.27-.07.25-.06.49.05.66.09.15.26.24.49.28,3.24.51,6.48.62,9.79.71.24,0,.43.21.43.45-.13,9.22.74,18.55,1.59,27.57.46,4.93.94,10.04,1.25,15.07.53,8.63,1.6,17.36,2.64,25.79.69,5.58,1.4,11.35,1.94,17.04l.48,4.99c1.18,12.42,2.4,25.27,4.29,37.83.15,1.01.19,2.17.23,3.4.09,2.81.2,6,1.77,7.84.75.87,1.86,1.49,3.39,1.88.17.04.29.18.33.35.49,2.64,1.36,4.44,2.64,5.49,2.47,2.02,6.6,2.28,9.92,2.49.56.04,1.1.07,1.61.11,8.94.71,18.05.51,26.86.32l.88-.02.9.02c8.81.19,17.92.39,26.86-.32.51-.04,1.05-.08,1.61-.11,3.32-.21,7.45-.47,9.92-2.49,1.29-1.05,2.15-2.85,2.64-5.49.03-.17.16-.3.33-.35,1.53-.39,2.64-1,3.39-1.88,1.57-1.83,1.68-5.02,1.77-7.84.04-1.23.08-2.39.23-3.4,1.89-12.57,3.11-25.41,4.29-37.83l.48-4.99c.55-5.7,1.26-11.46,1.94-17.04,1.04-8.43,2.11-17.16,2.64-25.79.31-5.03.79-10.14,1.25-15.07.85-9.02,1.72-18.35,1.59-27.57,0-.24.19-.44.43-.45,3.31-.08,6.55-.2,9.79-.71.23-.04.4-.13.49-.28.11-.17.12-.42.05-.66-.03-.09-.02-.18,0-.27.04-.11.05-.2.05-.31,0-7.54-.14-13.82-1.84-20.13-.05-.18-.13-.32-.25-.42-.06-.05-.11-.13-.13-.2-.91-2.96-3.97-5.46-7.29-5.95-.2-.03-.36-.2-.38-.4-.56-6.98-2.98-14.1-6.64-19.52-1.01-1.5-1.97-2.98-2.91-4.44-3.47-5.38-6.75-10.45-11.72-14.86-10.71-9.5-23.95-14.43-39.34-14.66h-.09ZM110.49,275.17c-.51,1.85-1.24,3.13-2.15,3.79h0c-1.35.99-3.49,1.22-5.21,1.41-.26.03-.51.06-.74.08-3.91.48-8.18.73-13.45.79-1.23.02-2.5.02-3.9.02-1.29,0-2.68,0-4.24-.02-.1,0-.2-.04-.27-.1-.14-.11-.32-.17-.53-.17-3.12.02-6.24.07-9.35.13-3.13-.05-6.25-.1-9.37-.13-.21,0-.39.05-.53.17-.08.06-.17.1-.27.1-3.26.03-5.77.03-8.14,0-5.27-.06-9.54-.32-13.45-.79-.23-.03-.48-.05-.74-.08-1.72-.19-3.86-.42-5.21-1.41-.91-.67-1.64-1.94-2.15-3.79-.04-.14,0-.29.09-.4.09-.11.23-.17.38-.16.87.07,1.74.09,2.51.12l.62.02c9.11.32,18.09.55,26.7.69.07,0,.14.02.2.05.3.17.71.1,1.08.1,2.76,0,5.51-.02,8.27-.04,2.98.02,5.95.04,8.93.04.16,0,.3-.03.42-.1.06-.03.13-.05.2-.05,8.61-.14,17.59-.37,26.7-.69l.62-.02c.77-.02,1.64-.05,2.51-.12.15-.01.28.05.38.16.09.11.12.26.08.4ZM126.35,172.08c-.36,3.71-.72,7.42-1.04,11.11-.8,9.12-1.87,18.38-2.91,27.33-.86,7.39-1.74,15.04-2.47,22.56-1.02,10.55-2.08,19.26-3.34,27.41-.23,1.47-.34,2.97-.45,4.42-.06.83-.13,1.67-.21,2.51-.47,4.71-3.84,5.29-7.87,5.52-12.89.75-25.6.87-37.42.89-11.82-.02-24.53-.14-37.42-.89-4.02-.23-7.39-.81-7.87-5.52-.08-.84-.15-1.68-.21-2.51-.11-1.45-.23-2.95-.45-4.42-1.26-8.14-2.32-16.85-3.34-27.41-.73-7.53-1.61-15.17-2.47-22.56-1.04-8.95-2.11-18.21-2.91-27.33-.32-3.69-.68-7.39-1.04-11.11-1.24-12.9-2.53-26.23-2.35-39.27,0-.12.05-.23.14-.31.09-.08.2-.13.32-.12,1.01.03,2.01.06,3.01.1l2.35.11c5.13.24,10.44.49,15.66.64,10.14.29,20.46.26,30.44.24h6.13s6.13,0,6.13,0c9.98.03,20.3.05,30.44-.24,5.22-.15,10.53-.4,15.66-.64l2.35-.11c1-.05,2.01-.08,3.01-.1.11,0,.23.04.32.12.09.08.13.19.14.31.19,13.04-1.1,26.37-2.34,39.27ZM137.53,111.16c.21-.01.41.13.46.34,1.4,5.81,1.51,11.64,1.52,18.11,0,.22-.16.41-.38.44-3.78.51-7.69.58-11.48.65-1.82.03-3.71.07-5.54.15l-.72.03c-5.2.24-10.58.49-15.88.62-6.75.17-13.57.21-20.31.21-2.89,0-5.76,0-8.6-.01h-4.2s-.07-.01-.09-.02h-1.66s-1.69,0-1.69,0l-4.26.02c-9.48.02-19.27.05-28.91-.19-5.3-.13-10.68-.38-15.88-.62l-.72-.03c-1.83-.08-3.72-.12-5.54-.15-3.79-.07-7.71-.14-11.48-.65-.22-.03-.38-.22-.38-.44,0-6.47.12-12.29,1.52-18.11.05-.21.25-.36.46-.34,2.29.17,4.64.23,6.91.29,1.5.04,3,.08,4.5.15l2.34.11c5.13.24,10.45.49,15.67.64,10.13.29,20.43.26,30.39.24,2.36,0,4.72-.01,7.07-.01,2.36,0,4.72,0,7.08.01,9.97.03,20.27.05,30.39-.24,5.22-.15,10.53-.4,15.66-.64l2.35-.11c1.5-.07,3-.11,4.5-.15,2.27-.06,4.62-.12,6.91-.29ZM119.39,78.63c.94,1.44,1.91,2.93,2.93,4.42,4.16,6.04,6.83,13.45,7.33,20.34.02.24-.16.45-.4.47-.48.04-.97.09-1.45.14-1.02.1-2.08.21-3.14.24l-.8.02c-1.55.04-3.15.08-4.72.26-6.85.03-15.66.26-24.18.48-8.51.22-17.31.45-24.32.49-7.21-.01-14.54-.09-21.63-.16-6.34-.06-12.67-.13-19.01-.15h0c-.32,0-.56.13-.7.38-.17.29-.17.71,0,1.01.1.18.31.38.71.39,6.35.02,12.7.09,19.05.15,6.53.06,13.27.13,19.91.15.02,0,.09,0,.11,0h1.57s1.55,0,1.55,0c0,0,.13-.01.13-.01,6.73-.06,14.81-.27,22.62-.48,8.4-.22,17.08-.45,23.84-.48.12,0,.19,0,.26,0,1.61-.19,3.24-.23,4.81-.27l.78-.02c1.02-.03,2.06-.13,3.05-.23.87-.09,1.76-.18,2.66-.22.12,0,.23-.03.34-.08.04-.02.08-.03.12-.03.18-.02.34-.1.46-.21.1-.09.23-.13.36-.11,2.14.33,4.28,1.84,5.32,3.75.07.13.07.29,0,.42-.07.13-.21.22-.35.23-2.68.2-5.43.26-8.09.31-1.81.04-3.68.07-5.5.16l-.72.03c-5.2.24-10.59.49-15.89.62-6.73.17-13.54.2-20.26.2-2.87,0-5.73,0-8.56-.01h-6.61s-.32-.01-.32-.01h-.79s-6.14.01-6.14.01c-9.45.02-19.22.05-28.82-.19-5.3-.13-10.68-.38-15.89-.62l-.72-.03c-1.81-.08-3.69-.12-5.5-.16-2.66-.05-5.41-.11-8.09-.31-.15-.01-.28-.1-.35-.23-.07-.13-.07-.29,0-.42,1.04-1.91,3.17-3.42,5.32-3.75.13-.02.26.02.36.11.12.11.28.18.46.21.04,0,.08.02.12.03.11.05.22.07.34.08.9.04,1.79.13,2.66.22,1,.1,2.03.2,3.05.23l.78.02c1.58.04,3.21.08,4.81.27.28.03.49-.04.62-.22.18-.24.2-.64.06-.98-.08-.19-.29-.52-.78-.58-1.56-.18-3.17-.22-4.72-.26l-.8-.02c-1.06-.03-2.12-.14-3.15-.24-.48-.05-.96-.1-1.45-.14-.24-.02-.42-.23-.4-.47.5-6.88,3.17-14.3,7.33-20.34,1.02-1.49,2-2.98,2.93-4.42,3.1-4.76,6.03-9.26,10.56-13.27,10.34-9.17,23.19-13.92,38.19-14.11,15.01.19,27.86,4.93,38.2,14.11,4.52,4.01,7.45,8.51,10.56,13.27Z"></path><path class="uuid-22f7d511-21d8-47cf-a839-abe61f09a2a7" d="M84,56.03c-4.23-.75-8.54-.92-12.2-.97-.13-.02-.19-.02-.26-.03h-.89s-.9,0-.9,0c-.09,0-.13,0-.19.02-3.73.07-8.04.23-12.27.98-2.14.38-4.64,1.26-4.44,3.29.23,2.32,3.55,2.92,4.97,3.07,3.66.39,7.51.37,11.25.35h1.58s1.58,0,1.58,0c3.73.02,7.59.04,11.25-.35,1.42-.15,4.75-.75,4.97-3.07.2-2.03-2.31-2.91-4.44-3.29ZM85.99,59.67c-.05.58-.12,1.3-12.86,1.31-.02,0-.09,0-.11-.01-.28,0-.74,0-1.38,0h-1s-1.01,0-1.01,0c-.63,0-1.1,0-1.32,0,0,0-.11.01-.11.01-12.8,0-12.86-.73-12.91-1.3-.02-.23.02-.58.33-.92,1.18-1.29,6.11-1.95,14.65-1.96h.73c8.55.01,13.48.67,14.65,1.96.31.34.36.69.33.92Z"></path><path class="uuid-effd8018-edd1-4d44-a222-4ce624467f40" d="M67.1,95.53c.65-2.33,3.74-2.8,5.78-1.75.35-2.81,2.71-4.54,5.43-5.57.18-9.26.37-19.31.56-31.42.16-10.15.56-20.34.22-30.48-.27-8.01.15-16.16.98-24.28l-16.28-.26c-.98,6.14-.98,12.49-.8,18.7.24,8.31.28,16.53.15,24.85-.32,20.03-1.06,18.69-1.3,38.73-.03,2.36-.04,4.73-.07,7.09,2.06.94,3.83,2.62,5.32,4.39Z"></path><path class="uuid-08e287f3-4f90-4dcb-9ae8-d808b53f8e78" d="M79.36,237.37c-.06-9.4-.98-18.86-1.48-28.24-.79-14.96-.82-29.84-.71-44.78-.59.15-1.21.27-1.84.34-1.12.12-2.53.17-3.61-.26-.42-.17-.8-.61-1.23-.73-.87-.24-.67-.57-1.23.4-1.28,2.21-3.32,3.9-5.24,5.56-.91.78-1.84,1.51-2.84,2.13-.05,10.7.02,21.4.54,32.11.52,10.77,1.55,21.58,1.73,32.37.17,9.95-1.48,19.67.4,29.5,0,0,1.63,1.51,8.08,1.51s7.58-1.26,7.58-1.26c.22-1.26.22-2.65-.1-4.16-1.68-7.99,0-16.36-.05-24.48Z"></path><path class="uuid-9c9ba743-a5ad-4c71-8b40-31e65f156059" d="M78.48.68C76.86,0,74.82-.03,73.04.02c-1.97.05-4.29-.15-6.21.18-.76.13-2.11.56-2.53,1.21-.62.41-.96.97-.39,1.65,1.03,1.22,4.55.87,6.01.89,2.84.05,6.42.66,9.03-.52,1.88-.85,1.13-2.08-.47-2.75Z"></path><path class="uuid-22f7d511-21d8-47cf-a839-abe61f09a2a7" d="M85.95,59.25c.05.16.06.31.04.42-.05.58-.12,1.3-12.86,1.31-.02,0-.09,0-.11-.01-.28,0-.74,0-1.38,0h-1s-1.01,0-1.01,0c-.63,0-1.1,0-1.32,0,0,0-.11.01-.11.01-12.8,0-12.86-.73-12.91-1.3-.01-.12,0-.26.04-.42h-2.49s0,.04,0,.07c.23,2.32,3.55,2.92,4.97,3.07,3.66.39,7.51.37,11.25.35h1.58s1.58,0,1.58,0c3.73.02,7.59.04,11.25-.35,1.42-.15,4.75-.75,4.97-3.07,0-.02,0-.05,0-.07h-2.49Z"></path><path class="uuid-22f7d511-21d8-47cf-a839-abe61f09a2a7" d="M70.64,105.49c-4.45,0-8.94-.04-13.39-.08v1.77c3.9.03,7.82.06,11.7.08.02,0,.09,0,.11,0h1.57s1.55,0,1.55,0c0,0,.13-.01.13-.01,3.79-.04,8.01-.12,12.36-.22v-1.77c-5.02.12-9.85.21-14.04.23Z"></path><path class="uuid-22f7d511-21d8-47cf-a839-abe61f09a2a7" d="M72.39,131.69s-.07,0-.09,0h-1.66s-1.69,0-1.69,0l-4.26.02c-2.46,0-4.94.01-7.44.01v1.77c2.43,0,4.86,0,7.26-.01h6.13s6.13,0,6.13,0c2.61,0,5.25.01,7.9.01v-1.77c-2.71,0-5.41,0-8.08-.01h-4.2Z"></path><path class="uuid-22f7d511-21d8-47cf-a839-abe61f09a2a7" d="M70.96,110.82h-.32s-.79,0-.79,0l-6.14.02c-2.14,0-4.3.01-6.46.01v1.77c2.12,0,4.23,0,6.32-.01,2.36,0,4.72-.01,7.07-.01,2.36,0,4.72,0,7.08.01,2.3,0,4.62.01,6.96.01v-1.77c-2.38,0-4.75,0-7.1-.01h-6.61Z"></path><path class="uuid-22f7d511-21d8-47cf-a839-abe61f09a2a7" d="M42.36,61.71c-7.89,5.87-14.41,11.78-18.63,20.78-.48,1.02,1.04,1.92,1.53.89,4.12-8.77,10.32-14.43,18-20.14.9-.67.02-2.21-.89-1.53Z"></path><path class="uuid-22f7d511-21d8-47cf-a839-abe61f09a2a7" d="M21.01,86.56c-.71,1.12-1.18,2.4-2.01,3.44-.71.88.54,2.14,1.25,1.25.94-1.17,1.49-2.54,2.29-3.8.61-.96-.92-1.85-1.53-.89Z"></path><path class="uuid-22f7d511-21d8-47cf-a839-abe61f09a2a7" d="M4.95,116.7c.08,3.68-.36,7.35-.4,11.03-.01,1.14,1.76,1.14,1.77,0,.04-3.68.48-7.35.4-11.03-.02-1.14-1.79-1.14-1.77,0Z"></path><path class="uuid-22f7d511-21d8-47cf-a839-abe61f09a2a7" d="M26.54,235.36c-.55-4.41-.45-8.86-.79-13.29-.72-9.31-2.31-18.51-3.35-27.79-2.09-18.75-3.2-37.93-3.63-56.79-.03-1.14-1.79-1.1-1.77.04.22,9.76.79,19.51,1.56,29.24.78,9.72,1.11,19.5,2.26,29.19,1.09,9.27,2.66,18.48,3.28,27.8.61,9.34,1.7,17.97,3.62,27.15.23,1.11,1.93.6,1.69-.5-1.04-5-2.24-9.97-2.87-15.04Z"></path><path class="uuid-22f7d511-21d8-47cf-a839-abe61f09a2a7" d="M25.83,170.58c-1.13-4.92-.97-10.79-1.19-15.84-.25-5.74-.25-11.5-.39-17.25-.03-1.14-1.79-1.09-1.77.05.15,6.32.13,12.65.47,18.97.25,4.71.13,10,1.19,14.59.25,1.11,1.95.59,1.69-.52Z"></path><path class="uuid-59eb21d7-add0-4453-a2c0-75fcfe3350ed" d="M101.99,251.53c-7.39,0-7.41,11.49,0,11.49s7.41-11.49,0-11.49Z"></path><path class="uuid-59eb21d7-add0-4453-a2c0-75fcfe3350ed" d="M103.59,233.18c-7.39,0-7.41,11.49,0,11.49s7.41-11.49,0-11.49Z"></path><path class="uuid-59eb21d7-add0-4453-a2c0-75fcfe3350ed" d="M87.02,236.58c-7.39,0-7.41,11.49,0,11.49s7.41-11.49,0-11.49Z"></path><path class="uuid-59eb21d7-add0-4453-a2c0-75fcfe3350ed" d="M79.67,250.66c-7.39,0-7.41,11.49,0,11.49s7.41-11.49,0-11.49Z"></path><path class="uuid-59eb21d7-add0-4453-a2c0-75fcfe3350ed" d="M67.82,235.85c-7.04-2.25-10.56,8.68-3.5,10.94,7.04,2.25,10.56-8.68,3.5-10.94Z"></path><path class="uuid-59eb21d7-add0-4453-a2c0-75fcfe3350ed" d="M57.09,253.36c-7.1,2.05-3.92,13.09,3.19,11.04,7.1-2.05,3.92-13.09-3.19-11.04Z"></path><path class="uuid-59eb21d7-add0-4453-a2c0-75fcfe3350ed" d="M38.1,248.06c-7.39,0-7.41,11.49,0,11.49s7.41-11.49,0-11.49Z"></path><path class="uuid-59eb21d7-add0-4453-a2c0-75fcfe3350ed" d="M52.57,236.66c-5.99-4.33-12.73,4.97-6.73,9.31,5.99,4.33,12.73-4.97,6.73-9.31Z"></path><path class="uuid-59eb21d7-add0-4453-a2c0-75fcfe3350ed" d="M35.13,223.2c-7.39,0-7.41,11.49,0,11.49s7.41-11.49,0-11.49Z"></path><path class="uuid-59eb21d7-add0-4453-a2c0-75fcfe3350ed" d="M50.5,196.06c-7.39,0-7.41,11.49,0,11.49s7.41-11.49,0-11.49Z"></path><path class="uuid-59eb21d7-add0-4453-a2c0-75fcfe3350ed" d="M53.49,217.81c-7.39,0-7.41,11.49,0,11.49s7.41-11.49,0-11.49Z"></path><path class="uuid-59eb21d7-add0-4453-a2c0-75fcfe3350ed" d="M76.84,218.41c-7.39,0-7.41,11.49,0,11.49s7.41-11.49,0-11.49Z"></path><path class="uuid-59eb21d7-add0-4453-a2c0-75fcfe3350ed" d="M95.46,199.29c-6.39-3.72-12.18,6.2-5.78,9.93,6.39,3.72,12.18-6.2,5.78-9.93Z"></path><path class="uuid-59eb21d7-add0-4453-a2c0-75fcfe3350ed" d="M105.24,181.07c-7.39,0-7.41,11.49,0,11.49s7.41-11.49,0-11.49Z"></path><path class="uuid-59eb21d7-add0-4453-a2c0-75fcfe3350ed" d="M95.48,219.74c-7.39,0-7.41,11.49,0,11.49s7.41-11.49,0-11.49Z"></path><path class="uuid-256585f3-987d-4741-8f69-54816418a78b" d="M55.02,201.01c-.16-.97-.98-1.74-2.05-1.28-.52.22-.77.68-1.03,1.16-.52.96-1.16,1.72-2.18,2.17-1.02.46-2.49.72-2.27,2.21.15,1.04,1.27,1.31,2.16,1.33,2.91.09,5.37-2.25,5.53-5.14.01-.2-.05-.35-.16-.46Z"></path><path class="uuid-256585f3-987d-4741-8f69-54816418a78b" d="M81.67,223.39c-.16-.97-.98-1.74-2.05-1.28-.52.22-.77.68-1.03,1.16-.52.96-1.16,1.72-2.18,2.17-1.02.46-2.49.72-2.27,2.21.15,1.04,1.27,1.3,2.16,1.33,2.91.09,5.37-2.25,5.53-5.14.01-.2-.05-.35-.16-.46Z"></path><path class="uuid-256585f3-987d-4741-8f69-54816418a78b" d="M71.06,242.33c.14-.97-.4-1.95-1.56-1.84-.56.05-.94.41-1.33.79-.79.76-1.63,1.28-2.74,1.4-1.12.12-2.59-.07-2.84,1.41-.18,1.04.81,1.63,1.65,1.93,2.74.97,5.8-.51,6.83-3.21.07-.19.05-.35-.01-.48Z"></path><path class="uuid-256585f3-987d-4741-8f69-54816418a78b" d="M97.03,206.36c.35-.92.03-1.99-1.13-2.13-.56-.07-1.01.2-1.47.48-.93.57-1.87.9-2.98.78-1.12-.12-2.51-.63-3.08.76-.4.97.44,1.77,1.2,2.24,2.47,1.54,5.77.76,7.37-1.66.11-.17.13-.33.09-.47Z"></path><path class="uuid-256585f3-987d-4741-8f69-54816418a78b" d="M107.9,240.99c.35-.92.03-1.99-1.13-2.13-.56-.07-1.01.2-1.47.48-.93.57-1.87.9-2.98.78-1.12-.12-2.51-.63-3.08.76-.4.97.44,1.77,1.2,2.24,2.47,1.54,5.77.76,7.37-1.66.11-.17.13-.33.09-.47Z"></path><path class="uuid-256585f3-987d-4741-8f69-54816418a78b" d="M39.44,230.84c.35-.92.03-1.99-1.13-2.13-.56-.07-1.01.2-1.47.48-.93.57-1.87.9-2.98.78-1.12-.12-2.51-.63-3.08.76-.4.97.44,1.77,1.2,2.24,2.47,1.54,5.77.76,7.37-1.66.11-.17.13-.33.09-.47Z"></path><path class="uuid-256585f3-987d-4741-8f69-54816418a78b" d="M104.47,191.61c1.08.44,2.88-.44,3.56-1.3.04-.05.07-.11.1-.16.5-.49.75-1.09.39-1.75-.67-1.22-2.7-.15-3.57.31-.56.29-1.18.71-1.34,1.37-.15.65.26,1.3.86,1.54Z"></path><path class="uuid-256585f3-987d-4741-8f69-54816418a78b" d="M94.77,229.78c1.08.44,2.88-.44,3.56-1.3.04-.05.07-.11.1-.16.5-.49.75-1.09.39-1.75-.67-1.22-2.7-.15-3.57.31-.56.29-1.18.71-1.34,1.37-.15.65.26,1.3.86,1.54Z"></path><path class="uuid-256585f3-987d-4741-8f69-54816418a78b" d="M108.83,186.94c.07.02.14.03.21.02.7-.02,1.04-.72.84-1.33-.17-.52-.64-.92-1.19-.94-.72-.02-1.44.66-1.21,1.41.17.55.78.89,1.35.84Z"></path><path class="uuid-256585f3-987d-4741-8f69-54816418a78b" d="M101.3,262.28c1.08.44,2.88-.44,3.56-1.3.04-.05.07-.11.1-.16.5-.49.75-1.09.39-1.75-.67-1.22-2.7-.15-3.57.31-.56.29-1.18.71-1.34,1.37-.15.65.26,1.3.86,1.54Z"></path><path class="uuid-256585f3-987d-4741-8f69-54816418a78b" d="M37.08,258.44c1.37.55,3.65-.55,4.52-1.65.05-.07.08-.14.12-.21.63-.62.95-1.39.49-2.23-.85-1.55-3.43-.19-4.54.39-.71.37-1.5.91-1.69,1.74-.19.83.33,1.64,1.09,1.95Z"></path><path class="uuid-256585f3-987d-4741-8f69-54816418a78b" d="M82.53,255.66c.07.02.14.03.21.02.7-.02,1.04-.72.84-1.33-.17-.52-.64-.92-1.19-.94-.72-.02-1.44.66-1.21,1.41.17.55.78.89,1.35.84Z"></path><path class="uuid-256585f3-987d-4741-8f69-54816418a78b" d="M82.46,259.61c.07.02.14.03.21.02.7-.02,1.04-.72.84-1.33-.17-.52-.64-.92-1.19-.94-.72-.02-1.44.66-1.21,1.41.17.55.78.89,1.35.84Z"></path><path class="uuid-256585f3-987d-4741-8f69-54816418a78b" d="M52.9,228.23c1.08.44,2.88-.44,3.56-1.3.04-.05.07-.11.1-.16.5-.49.75-1.09.39-1.75-.67-1.22-2.7-.15-3.57.31-.56.29-1.18.71-1.34,1.37-.15.65.26,1.3.86,1.54Z"></path><path class="uuid-256585f3-987d-4741-8f69-54816418a78b" d="M57.26,223.56c.07.02.14.03.21.02.7-.02,1.04-.72.84-1.33-.17-.52-.64-.92-1.19-.94-.72-.02-1.44.66-1.21,1.41.17.55.78.9,1.35.84Z"></path><path class="uuid-256585f3-987d-4741-8f69-54816418a78b" d="M45.33,244.99c.62.98,2.59,1.33,3.65,1.03.06-.02.12-.05.17-.08.69-.11,1.25-.45,1.34-1.19.17-1.38-2.1-1.7-3.08-1.84-.63-.09-1.38-.12-1.89.33-.5.44-.55,1.2-.2,1.75Z"></path><path class="uuid-256585f3-987d-4741-8f69-54816418a78b" d="M51.59,243.76c.05.05.1.1.16.14.58.39,1.27.02,1.46-.59.17-.52.02-1.12-.42-1.46-.57-.44-1.55-.31-1.8.43-.18.55.11,1.18.6,1.47Z"></path><path class="uuid-256585f3-987d-4741-8f69-54816418a78b" d="M85.99,246.95c1.08.44,2.88-.44,3.56-1.3.04-.05.07-.11.1-.16.5-.49.75-1.09.39-1.75-.67-1.22-2.7-.15-3.57.31-.56.29-1.18.71-1.34,1.37-.15.65.26,1.3.86,1.54Z"></path><path class="uuid-256585f3-987d-4741-8f69-54816418a78b" d="M90.35,242.28c.07.02.14.03.21.02.7-.02,1.04-.72.84-1.33-.17-.52-.64-.92-1.19-.94-.72-.02-1.44.66-1.21,1.41.17.55.78.89,1.35.84Z"></path><path class="uuid-256585f3-987d-4741-8f69-54816418a78b" d="M59.58,263.79c1.16.12,2.64-1.22,3.06-2.24.03-.06.03-.12.05-.18.34-.61.42-1.26-.11-1.79-.98-.98-2.64.6-3.35,1.29-.46.44-.94,1.01-.9,1.69.04.67.61,1.17,1.26,1.24Z"></path><path class="uuid-256585f3-987d-4741-8f69-54816418a78b" d="M62.47,258.09c.07,0,.14-.01.21-.03.66-.21.8-.98.44-1.51-.3-.45-.87-.71-1.4-.57-.69.18-1.2,1.03-.77,1.69.32.48,1,.64,1.53.43Z"></path><path class="uuid-828e37ea-1e88-4f97-a28f-3f598d52223b" d="M115.84,211.81c-3.23-6.46-6.7-12.58-12.01-17.61-1.34-1.27-2.91-2.44-4.8-2.68-2.14-.26-4.06.91-5.7,2.13-3.28,2.45-6.05,5.61-8.4,8.94-4.38,6.19-6.29,13.64-10.5,19.91-3.39,5.06-8.8,9.87-15.29,9.32-6.53-.55-11.26-5.94-13.75-11.61-2.83-6.47-3.2-13.77-6.38-20.1-1.46-2.9-3.69-6.37-6.86-7.59-2.76-1.05-5.39.37-7.31,2.32-1.92,1.95-3.47,4.4-4.65,7.03.25,2.26.51,4.52.76,6.75.82,7.28,1.67,14.8,2.37,22.21.98,10.4,2,18.97,3.21,26.99.22,1.45.33,2.93.44,4.36.06.82.12,1.64.2,2.47.45,4.64,3.69,5.21,7.55,5.44,12.37.74,24.57.86,35.91.88,11.34-.02,23.53-.13,35.9-.88,3.86-.23,7.09-.8,7.55-5.44.08-.83.14-1.65.2-2.47.11-1.43.22-2.9.44-4.36,1.21-8.02,2.23-16.6,3.21-26.99.4-4.26.85-8.55,1.32-12.82-1.27-2.05-2.38-4.19-3.39-6.21Z"></path><path class="uuid-828e37ea-1e88-4f97-a28f-3f598d52223b" d="M106.38,228.36c-5.34,1.94-9.58,5.44-13.54,9.42-3.9,3.92-7.65,8.09-12.2,11.29-4.57,3.23-9.38,4.59-14.96,4.4-11.3-.4-22.16-6.4-28.5-15.82-3.59-5.34-5.49-11.86-10.07-16.52-1.43-1.46-3.2-2.75-5.15-3.28.47,4.33.93,8.68,1.34,13,.98,10.4,2,18.97,3.21,26.99.22,1.45.33,2.93.44,4.36.06.82.12,1.64.2,2.47.45,4.64,3.69,5.21,7.55,5.44,12.37.74,24.57.86,35.91.88,11.34-.02,23.53-.13,35.9-.88,3.86-.23,7.09-.8,7.55-5.44.08-.83.14-1.65.2-2.47.11-1.43.22-2.9.44-4.36,1.21-8.02,2.23-16.6,3.21-26.99.13-1.4.28-2.8.42-4.2-4.05-.22-8.12.34-11.94,1.72Z"></path></g></g></g></g></svg>