<svg xmlns="http://www.w3.org/2000/svg" viewBox="0 0 141.28 283.11"><defs><style>      .uuid-bd302793-d84e-4999-a854-873f47f153d9 {        mix-blend-mode: multiply;        opacity: .3;      }      .uuid-bd302793-d84e-4999-a854-873f47f153d9, .uuid-1fad93d6-4d1a-4a4a-9bd9-906596d0d026, .uuid-112cae6c-06fa-4e12-85f8-eb9c8a60dc09, .uuid-e538aa7e-3e27-473d-a161-83b73a12a868, .uuid-414c9ac8-a700-4c9e-a261-7f265347c379, .uuid-4daa2ea5-a203-4944-a296-a266fff91eb4, .uuid-e27f3348-08c0-47d4-b78e-75e171a3e99a, .uuid-896bfa28-e38a-4c0e-b6a4-3d15dccca0e6, .uuid-3d9452b2-db83-4eef-a81f-7da5a3f00c6b {        stroke-width: 0px;      }      .uuid-bd302793-d84e-4999-a854-873f47f153d9, .uuid-4daa2ea5-a203-4944-a296-a266fff91eb4 {        fill: #c477aa;      }      .uuid-1fad93d6-4d1a-4a4a-9bd9-906596d0d026, .uuid-112cae6c-06fa-4e12-85f8-eb9c8a60dc09 {        opacity: .5;      }      .uuid-1fad93d6-4d1a-4a4a-9bd9-906596d0d026, .uuid-896bfa28-e38a-4c0e-b6a4-3d15dccca0e6 {        fill: #97bf3d;      }      .uuid-112cae6c-06fa-4e12-85f8-eb9c8a60dc09 {        mix-blend-mode: screen;      }      .uuid-112cae6c-06fa-4e12-85f8-eb9c8a60dc09, .uuid-e538aa7e-3e27-473d-a161-83b73a12a868 {        fill: #f4cce5;      }      .uuid-0ba600b5-3dca-4d87-99a2-f0377f164f48 {        isolation: isolate;      }      .uuid-414c9ac8-a700-4c9e-a261-7f265347c379 {        fill: #534741;      }      .uuid-e27f3348-08c0-47d4-b78e-75e171a3e99a {        fill: #e19bd0;      }      .uuid-3d9452b2-db83-4eef-a81f-7da5a3f00c6b {        fill: #7fa52d;      }    </style></defs><g class="uuid-0ba600b5-3dca-4d87-99a2-f0377f164f48"><g id="uuid-17613a59-d575-4ad7-ae6e-16e598ecade1" data-name="Layer 2"><g id="uuid-4196ba22-6b47-4845-8a1c-081cec950a3a" data-name="objects"><g><path class="uuid-4daa2ea5-a203-4944-a296-a266fff91eb4" d="M124.07,170.78c-.34,3.66-.69,7.31-1,10.94-.77,8.98-1.8,18.09-2.79,26.91-.82,7.28-1.67,14.8-2.37,22.22-.98,10.39-2,18.97-3.21,26.99-.22,1.45-.33,2.93-.44,4.36-.06.82-.12,1.64-.2,2.47-.45,4.64-3.69,5.21-7.55,5.44-12.37.74-24.57.86-35.9.88-11.34-.02-23.54-.13-35.91-.88-3.86-.23-7.09-.8-7.55-5.44-.08-.83-.14-1.65-.2-2.47-.11-1.43-.22-2.9-.44-4.36-1.21-8.02-2.23-16.59-3.21-26.99-.7-7.41-1.55-14.93-2.37-22.21-1-8.81-2.03-17.93-2.79-26.91-.31-3.63-.65-7.28-1-10.94-1.19-12.7-2.43-25.83-2.25-38.67,0-.12.05-.23.13-.31.08-.08.19-.12.3-.12.97.03,1.93.06,2.89.1l2.26.11c4.92.24,10.02.49,15.03.63,9.73.29,19.64.26,29.21.23h5.88s5.88,0,5.88,0c9.58.03,19.48.05,29.21-.23,5.01-.15,10.1-.39,15.03-.63l2.26-.11c.96-.05,1.93-.08,2.89-.1.11,0,.22.04.3.12.08.08.13.19.13.31.18,12.84-1.06,25.97-2.25,38.67Z"></path><path class="uuid-1fad93d6-4d1a-4a4a-9bd9-906596d0d026" d="M79.36,236.61c-.06-9.64-.98-19.34-1.48-28.96-.78-15.21-.82-30.34-.71-45.52-.78,0-1.55-.04-2.31-.1-1.23-.11-2.48-.26-3.63-.74-1.38-.58-2.53-1.55-3.88-2.17-.59,4.02-3.04,6.66-6.16,8.45-.07,11.57-.01,23.14.53,34.72.52,11.05,1.55,22.13,1.73,33.2.17,10.2-1.48,20.17.4,30.26,0,0,1.62,1.54,8.08,1.54s7.58-1.29,7.58-1.29c.22-1.29.22-2.72-.1-4.27-1.68-8.19,0-16.78-.05-25.11Z"></path><g><path class="uuid-e538aa7e-3e27-473d-a161-83b73a12a868" d="M87.26,188.36c-7.39,0-7.41,11.49,0,11.49s7.41-11.49,0-11.49Z"></path><path class="uuid-e27f3348-08c0-47d4-b78e-75e171a3e99a" d="M91.79,193.31c-.16-.97-.98-1.74-2.05-1.28-.52.22-.77.68-1.03,1.16-.52.96-1.16,1.72-2.18,2.17-1.02.46-2.49.72-2.27,2.21.15,1.04,1.27,1.31,2.16,1.33,2.91.09,5.37-2.25,5.53-5.14.01-.2-.05-.35-.16-.46Z"></path></g><g><path class="uuid-e538aa7e-3e27-473d-a161-83b73a12a868" d="M85.08,217.29c-7.39,0-7.41,11.49,0,11.49s7.41-11.49,0-11.49Z"></path><path class="uuid-e27f3348-08c0-47d4-b78e-75e171a3e99a" d="M89.91,222.28c-.16-.97-.98-1.74-2.05-1.28-.52.22-.77.68-1.03,1.16-.52.96-1.16,1.72-2.18,2.17-1.02.46-2.49.72-2.27,2.21.15,1.04,1.27,1.31,2.16,1.33,2.91.09,5.37-2.25,5.53-5.14.01-.2-.05-.35-.16-.46Z"></path></g><g><path class="uuid-e538aa7e-3e27-473d-a161-83b73a12a868" d="M68.17,228.4c-7.04-2.25-10.56,8.68-3.5,10.94,7.04,2.25,10.56-8.68,3.5-10.94Z"></path><path class="uuid-e27f3348-08c0-47d4-b78e-75e171a3e99a" d="M71.42,234.89c.14-.97-.4-1.95-1.56-1.84-.56.05-.94.41-1.33.79-.79.76-1.63,1.28-2.74,1.4-1.12.12-2.59-.07-2.84,1.41-.18,1.04.81,1.63,1.65,1.93,2.74.97,5.8-.51,6.83-3.21.07-.19.05-.35-.01-.48Z"></path></g><g><path class="uuid-e538aa7e-3e27-473d-a161-83b73a12a868" d="M110.13,204.24c-6.39-3.72-12.18,6.2-5.78,9.93,6.39,3.72,12.18-6.2,5.78-9.93Z"></path><path class="uuid-e27f3348-08c0-47d4-b78e-75e171a3e99a" d="M111.7,211.31c.35-.92.03-1.99-1.13-2.13-.56-.07-1.01.2-1.47.48-.93.57-1.87.9-2.98.78-1.12-.12-2.51-.63-3.08.76-.4.97.44,1.77,1.2,2.24,2.47,1.54,5.77.76,7.37-1.66.11-.17.13-.33.09-.47Z"></path></g><g><path class="uuid-e538aa7e-3e27-473d-a161-83b73a12a868" d="M98.15,235.55c-7.39,0-7.41,11.49,0,11.49s7.41-11.49,0-11.49Z"></path><path class="uuid-e27f3348-08c0-47d4-b78e-75e171a3e99a" d="M102.46,243.36c.35-.92.03-1.99-1.13-2.13-.56-.07-1.01.2-1.47.48-.93.57-1.87.9-2.98.78-1.12-.12-2.51-.63-3.08.76-.4.97.44,1.77,1.2,2.24,2.47,1.54,5.77.76,7.37-1.66.11-.17.13-.33.09-.47Z"></path></g><g><path class="uuid-e538aa7e-3e27-473d-a161-83b73a12a868" d="M35.33,215.45c-7.39,0-7.41,11.49,0,11.49s7.41-11.49,0-11.49Z"></path><path class="uuid-e27f3348-08c0-47d4-b78e-75e171a3e99a" d="M39.65,223.09c.35-.92.03-1.99-1.13-2.13-.56-.07-1.01.2-1.47.48-.93.57-1.87.9-2.98.78-1.12-.12-2.51-.63-3.08.76-.4.97.44,1.77,1.2,2.24,2.47,1.54,5.77.76,7.37-1.66.11-.17.13-.33.09-.47Z"></path></g><g><path class="uuid-e538aa7e-3e27-473d-a161-83b73a12a868" d="M107.23,218.25c-7.39,0-7.41,11.49,0,11.49s7.41-11.49,0-11.49Z"></path><path class="uuid-e27f3348-08c0-47d4-b78e-75e171a3e99a" d="M106.53,228.29c1.08.44,2.88-.44,3.56-1.3.04-.05.07-.11.1-.16.5-.49.75-1.09.39-1.75-.67-1.22-2.7-.15-3.57.31-.56.29-1.18.71-1.34,1.37-.15.65.26,1.3.86,1.54Z"></path></g><g><path class="uuid-e538aa7e-3e27-473d-a161-83b73a12a868" d="M34.98,178.77c-7.39,0-7.41,11.49,0,11.49s7.41-11.49,0-11.49Z"></path><path class="uuid-e27f3348-08c0-47d4-b78e-75e171a3e99a" d="M34.21,189.31c1.08.44,2.88-.44,3.56-1.3.04-.05.07-.11.1-.16.5-.49.75-1.09.39-1.75-.67-1.22-2.7-.15-3.57.31-.56.29-1.18.71-1.34,1.37-.15.65.26,1.3.86,1.54Z"></path><path class="uuid-e27f3348-08c0-47d4-b78e-75e171a3e99a" d="M38.57,184.64c.07.02.14.03.21.02.7-.02,1.04-.72.84-1.33-.17-.52-.64-.92-1.19-.94-.72-.02-1.44.66-1.21,1.41.17.55.78.89,1.35.84Z"></path></g><g><path class="uuid-e538aa7e-3e27-473d-a161-83b73a12a868" d="M103.7,249.51c-7.39,0-7.41,11.49,0,11.49s7.41-11.49,0-11.49Z"></path><path class="uuid-e27f3348-08c0-47d4-b78e-75e171a3e99a" d="M103.01,260.26c1.08.44,2.88-.44,3.56-1.3.04-.05.07-.11.1-.16.5-.49.75-1.09.39-1.75-.67-1.22-2.7-.15-3.57.31-.56.29-1.18.71-1.34,1.37-.15.65.26,1.3.86,1.54Z"></path></g><g><path class="uuid-e538aa7e-3e27-473d-a161-83b73a12a868" d="M37.48,249.68c-7.39,0-7.41,11.49,0,11.49s7.41-11.49,0-11.49Z"></path><path class="uuid-e27f3348-08c0-47d4-b78e-75e171a3e99a" d="M36.47,260.06c1.37.55,3.65-.55,4.52-1.65.05-.07.08-.14.12-.21.63-.62.95-1.39.49-2.23-.85-1.55-3.43-.19-4.54.39-.71.37-1.5.91-1.69,1.74-.19.83.33,1.64,1.09,1.95Z"></path></g><g><path class="uuid-e538aa7e-3e27-473d-a161-83b73a12a868" d="M78.23,251.41c-7.39,0-7.41,11.49,0,11.49s7.41-11.49,0-11.49Z"></path><path class="uuid-e27f3348-08c0-47d4-b78e-75e171a3e99a" d="M81.1,256.41c.07.02.14.03.21.02.7-.02,1.04-.72.84-1.33-.17-.52-.64-.92-1.19-.94-.72-.02-1.44.66-1.21,1.41.17.55.78.9,1.35.84Z"></path><path class="uuid-e27f3348-08c0-47d4-b78e-75e171a3e99a" d="M81.03,260.36c.07.02.14.03.21.02.7-.02,1.04-.72.84-1.33-.17-.52-.64-.92-1.19-.94-.72-.02-1.44.66-1.21,1.41.17.55.78.89,1.35.84Z"></path></g><g><path class="uuid-e538aa7e-3e27-473d-a161-83b73a12a868" d="M57.82,213.78c-7.39,0-7.41,11.49,0,11.49s7.41-11.49,0-11.49Z"></path><path class="uuid-e27f3348-08c0-47d4-b78e-75e171a3e99a" d="M57.23,224.19c1.08.44,2.88-.44,3.56-1.3.04-.05.07-.11.1-.16.5-.49.75-1.09.39-1.75-.67-1.22-2.7-.15-3.57.31-.56.29-1.18.71-1.34,1.37-.15.65.26,1.3.86,1.54Z"></path><path class="uuid-e27f3348-08c0-47d4-b78e-75e171a3e99a" d="M61.59,219.53c.07.02.14.03.21.02.7-.02,1.04-.72.84-1.33-.17-.52-.64-.92-1.19-.94-.72-.02-1.44.66-1.21,1.41.17.55.78.89,1.35.84Z"></path></g><g><path class="uuid-e538aa7e-3e27-473d-a161-83b73a12a868" d="M49.26,231.53c-5.99-4.33-12.73,4.97-6.73,9.31,5.99,4.33,12.73-4.97,6.73-9.31Z"></path><path class="uuid-e27f3348-08c0-47d4-b78e-75e171a3e99a" d="M42.02,239.86c.62.98,2.59,1.33,3.65,1.03.06-.02.12-.05.17-.08.69-.11,1.25-.45,1.34-1.19.17-1.38-2.1-1.7-3.08-1.84-.63-.09-1.38-.12-1.89.33-.5.44-.55,1.2-.2,1.75Z"></path><path class="uuid-e27f3348-08c0-47d4-b78e-75e171a3e99a" d="M48.28,238.63c.05.05.1.1.16.14.58.39,1.27.02,1.46-.59.17-.52.02-1.12-.42-1.46-.57-.44-1.55-.31-1.8.43-.18.55.11,1.18.6,1.47Z"></path></g><g><path class="uuid-e538aa7e-3e27-473d-a161-83b73a12a868" d="M80.89,236.19c-7.39,0-7.41,11.49,0,11.49s7.41-11.49,0-11.49Z"></path><path class="uuid-e27f3348-08c0-47d4-b78e-75e171a3e99a" d="M79.86,246.56c1.08.44,2.88-.44,3.56-1.3.04-.05.07-.11.1-.16.5-.49.75-1.09.39-1.75-.67-1.22-2.7-.15-3.57.31-.56.29-1.18.71-1.34,1.37-.15.65.26,1.3.86,1.54Z"></path><path class="uuid-e27f3348-08c0-47d4-b78e-75e171a3e99a" d="M84.22,241.89c.07.02.14.03.21.02.7-.02,1.04-.72.84-1.33-.17-.52-.64-.92-1.19-.94-.72-.02-1.44.66-1.21,1.41.17.55.78.9,1.35.84Z"></path></g><g><path class="uuid-e538aa7e-3e27-473d-a161-83b73a12a868" d="M56.23,246.69c-7.1,2.05-3.92,13.09,3.19,11.04,7.1-2.05,3.92-13.09-3.19-11.04Z"></path><path class="uuid-e27f3348-08c0-47d4-b78e-75e171a3e99a" d="M58.72,257.11c1.16.12,2.64-1.22,3.06-2.24.03-.06.03-.12.05-.18.34-.61.42-1.26-.11-1.79-.98-.99-2.64.6-3.35,1.29-.46.44-.94,1.01-.9,1.69.04.67.61,1.17,1.26,1.24Z"></path><path class="uuid-e27f3348-08c0-47d4-b78e-75e171a3e99a" d="M61.61,251.42c.07,0,.14-.01.21-.03.66-.21.8-.98.44-1.51-.3-.45-.87-.71-1.4-.57-.69.18-1.2,1.03-.77,1.69.32.48,1,.64,1.53.43Z"></path></g><path class="uuid-e27f3348-08c0-47d4-b78e-75e171a3e99a" d="M31.02,159.88c.18-.02.4.13.44.31.6,2.5.6,5.1,1.27,7.58.72,2.69,2.48,5.06,4.54,6.89,3.66,3.25,8.71,4.12,13.47,3.48,8.84-1.18,13.84-8.61,15.87-16.71.07-.3.36-.41.63-.31,2.55.99,4.78,2.55,7.23,3.74,3.35,1.63,6.29,1.4,9.24-.94.29-.23.63.06.68.35.35,2.23.44,4.74,1.63,6.72,1.32,2.19,3.88,3.5,6.31,4.03,4.44.96,9.19-.33,13.05-2.59,7.56-4.44,12.95-12.65,15.33-20.95.08-.28.36-.43.63-.31,1.36.62,2.83,1.3,4.27,1.73.49-6.94.81-13.9.71-20.79,0-.12-.05-.23-.13-.31-.08-.08-.2-.12-.3-.12-.97.03-1.93.06-2.89.1l-2.26.11c-4.92.24-10.02.49-15.03.63-9.73.29-19.63.26-29.21.23h-5.88s-5.88,0-5.88,0c-9.58.03-19.48.05-29.21-.23-5.01-.15-10.1-.39-15.03-.63l-2.26-.11c-.96-.05-1.93-.08-2.89-.1-.11,0-.22.04-.3.12-.08.08-.13.19-.13.31-.11,7.94.32,16,.95,24,4.34,3.05,9.84,4.39,15.17,3.76Z"></path><path class="uuid-e538aa7e-3e27-473d-a161-83b73a12a868" d="M130.56,123.11c-.43-8.02-4.71-14.94-11.2-16.8.49-3.61-.45-7.57-2.53-10.94-1.97-3.19-4.83-6.34-8.33-7.8-1.86-.77-3.75-.97-5.63-.83-.63-5.41-2.95-10.71-6.8-14.24-6.84-6.28-16.21-4.3-24.6-2.78-.58-.43-1.31-.74-2.23-.87-9.78-1.43-19.07-.72-26.57,6.49-2.05,1.97-3.68,4.27-4.9,6.77-5.75,1.56-10.36,7.76-11.11,14.17-7.07,2.48-12.07,11.42-13.87,18.18-1.76,6.62-.49,12.12,2.69,16.58.31,8.23,2.91,14.74,12.16,16.68,3.35.7,6.59.54,9.48-.36-.43,8.35,0,17.49,8.48,20.72,5.75,2.19,12.51-.27,16.25-4.98,1.82-2.29,2.82-4.89,3.37-7.61,2.07,1.14,4.38,1.9,6.9,2.15,4.68.47,8.65-1.14,11.62-4.01,3.22,3.43,7,5.67,12.87,6.27,8.15.83,15.86-2.97,19.71-10.31,1.83-3.48,4.01-9.14,3.67-13.92,6.15-1.77,10.99-5.32,10.6-12.57Z"></path><path class="uuid-112cae6c-06fa-4e12-85f8-eb9c8a60dc09" d="M115.44,136.56c-.5-.5-1.34-.66-1.86-.03-2.2,2.7-4.18,5.4-7.14,7.34-2.83,1.84-6.08,2.6-9.03,4.14-2.85,1.49-4.89,4.88-1.43,7.17,3.48,2.29,9.38-.63,12.28-2.75,4.55-3.32,6.7-9.04,7.99-14.32.19-.76-.25-1.31-.81-1.54Z"></path><path class="uuid-112cae6c-06fa-4e12-85f8-eb9c8a60dc09" d="M79.15,150.18c-1.04.09-2.11.73-2.81,1.49-.4.43-.49,1.06-.22,1.56.03.27.14.54.36.74,1.48,1.38,4.97.84,4.99-1.57.01-1.3-1.01-2.33-2.32-2.22Z"></path><path class="uuid-112cae6c-06fa-4e12-85f8-eb9c8a60dc09" d="M61.18,155.1c-.32-1.93-1.96-3.47-4.1-2.55-1.03.44-1.54,1.36-2.05,2.32-1.03,1.92-2.33,3.43-4.36,4.34-2.05.92-4.97,1.45-4.55,4.42.3,2.08,2.54,2.61,4.32,2.67,5.82.18,10.74-4.5,11.06-10.28.02-.4-.11-.7-.32-.91Z"></path><path class="uuid-112cae6c-06fa-4e12-85f8-eb9c8a60dc09" d="M20.49,124.61c-.06.3.15.66.52.52,1.55-.59,3.69-.38,5.33-.24,2.37.21,4.61,1.27,6.66,2.43,3.68,2.09,7.38,4.77,9.25,8.6.95,1.96,1.85.26,3.1-.62,1.91-1.36,4.44-1.52,6.65-.86,1.84.55,4.76,2.16,5.59,3.99.18.41.84.19.82-.22-.11-3.18-2.17-5.98-5.18-7.12-1.64-.62-3.57-.53-5.28-.3-.68.09-1.41.21-2.03.52-.58.28-.98.86-1.49,1.24-.33-2.6-.89-5.07-2.74-7.05-1.73-1.85-4.17-3.5-6.6-4.25-2.86-.89-6.13-.66-9.05-.2-2.23.34-4.38,1.06-5.63,3.04-.13.21-.06.4.08.52Z"></path><path class="uuid-112cae6c-06fa-4e12-85f8-eb9c8a60dc09" d="M60.27,71.68c-.94-1.11-2.58-.98-4.12-.33-2.19.41-4.37,1.38-5.54,3.26-.73,1.17-.71,2.64.73,3.22,1.42.58,3.18,0,4.51-.58,1.63-.71,6.58-3.02,4.43-5.56Z"></path><path class="uuid-112cae6c-06fa-4e12-85f8-eb9c8a60dc09" d="M48.73,79.12c-.18-.75-.83-1.21-1.55-1.22-.43-.1-.89.04-1.26.34-.56.46-.79,1.29-.57,1.98.31.98,1.37,1.33,2.27.98.82-.32,1.32-1.21,1.11-2.08Z"></path><path class="uuid-112cae6c-06fa-4e12-85f8-eb9c8a60dc09" d="M102.6,123.08c-.8-1.98-2.8-4.27-4.99-4.6-2.84-.43-4.67.56-6.49,2.39-1.12-1.89-3.38-2.39-5.64-1.96-2.68.51-3.23,2.79-3.98,5.05-.18.55.65.76.85.24.91-2.39,4.28-2.99,6.54-2.31.83.25,1.44.96,2.32.82.45-.07.76-.48,1.13-.69,1.37-.78,3-1.06,4.55-.73,1.77.37,3.63,1.13,4.83,2.5.27.31.66.07.73-.25.15-.09.23-.25.15-.46Z"></path><path class="uuid-112cae6c-06fa-4e12-85f8-eb9c8a60dc09" d="M111.63,92.36c-.69-2.14-4.23-3.73-6.36-3.67-.13,0-.24.04-.36.06-1.35-.13-2.56.24-3.09,1.6-.98,2.51,3.13,4.2,4.9,4.93,1.13.47,2.53.87,3.7.28,1.15-.59,1.6-2,1.21-3.19Z"></path><path class="uuid-112cae6c-06fa-4e12-85f8-eb9c8a60dc09" d="M100.31,82.4c-.06-.12-.13-.24-.22-.34-.89-1.01-2.36-.65-3.03.4-.56.89-.58,2.09.09,2.93.86,1.09,2.77,1.32,3.59.05.6-.94.36-2.27-.42-3.04Z"></path><path class="uuid-e27f3348-08c0-47d4-b78e-75e171a3e99a" d="M81.23,93.85c-.56-.86-2.16-.83-3.01-.63-1.96.48-3.3,2.12-4.33,3.74-.47.73-.67,1.67-1.22,1.73-1.84-2.83-3.62-5.61-6.35-7.7-1.39-1.07-5.16-3.34-6.88-1.64-1.87,1.87,1.42,3.02,2.64,3.35,4.36,1.16,7.25,4.09,10.2,7.28.12.13.39.18.54.07.32-.24.56-.55.79-.88.79-.67,1.93-1.24,2.67-1.74,1.3-.87,2.79-1.02,4.1-1.75.69-.38,1.37-1.05.86-1.85Z"></path><path class="uuid-bd302793-d84e-4999-a854-873f47f153d9" d="M120.76,177.61c-7.33,5.3-10.33,14.54-13.33,22.66-1.43,3.88-2.84,7.96-5.05,11.48-1.47,2.34-3.61,4.67-6.59,4.61-3.42-.06-6.49-2.97-8.8-5.19-2.37-2.29-4.81-5.55-8.53-4.68-8.08,1.9-10.75,11.77-18.39,14.55-7.24,2.63-14.25-.42-18.54-6.44-3.29-4.61-5.44-10.01-7.92-15.07-2.61-5.33-5.46-10.98-9.91-15.04-1.74-1.59-3.63-2.67-5.6-3.31.02.18.03.36.05.53.77,8.98,1.8,18.1,2.79,26.91.82,7.28,1.67,14.8,2.37,22.21.98,10.4,2,18.97,3.21,26.99.22,1.45.33,2.93.44,4.36.06.82.12,1.64.2,2.47.45,4.64,3.69,5.21,7.55,5.44,12.37.74,24.57.86,35.91.88,11.34-.02,23.53-.13,35.9-.88,3.86-.23,7.09-.8,7.55-5.44.08-.83.14-1.65.2-2.47.11-1.43.22-2.9.44-4.36,1.21-8.02,2.23-16.6,3.21-26.99.7-7.41,1.55-14.94,2.37-22.22,1-8.81,2.02-17.92,2.79-26.91.16-1.9.35-3.82.52-5.73-.94.4-1.89.93-2.83,1.61Z"></path><path class="uuid-bd302793-d84e-4999-a854-873f47f153d9" d="M110.21,222.2c-3,4.77-5.65,9.76-9.49,13.93-3.73,4.05-8.26,7.36-13.25,9.68-10.19,4.74-21.87,5.01-32.48,1.5-4.98-1.65-9.76-4.16-13.64-7.73-3.36-3.1-5.59-7.05-8.08-10.83-2.88-4.38-6.73-10.01-11.54-13.02.56,5.02,1.1,10.09,1.57,15.12.98,10.4,2,18.97,3.21,26.99.22,1.45.33,2.93.44,4.36.06.82.12,1.64.2,2.47.45,4.64,3.69,5.21,7.55,5.44,12.37.74,24.57.86,35.91.88,11.34-.02,23.53-.13,35.9-.88,3.86-.23,7.09-.8,7.55-5.44.08-.83.14-1.65.2-2.47.11-1.43.22-2.9.44-4.36,1.21-8.02,2.23-16.6,3.21-26.99.61-6.45,1.33-12.98,2.05-19.37-4,2.69-7.11,6.54-9.75,10.73Z"></path><path class="uuid-414c9ac8-a700-4c9e-a261-7f265347c379" d="M84,56.03c-4.23-.75-8.54-.92-12.2-.97-.13-.02-.19-.02-.26-.03h-.89s-.9,0-.9,0c-.08,0-.13,0-.19.02-3.73.07-8.04.23-12.27.98-2.14.38-4.64,1.26-4.44,3.29.23,2.32,3.55,2.92,4.97,3.07,3.66.39,7.51.37,11.25.35h1.58s1.58,0,1.58,0c3.73.02,7.59.04,11.25-.35,1.42-.15,4.75-.75,4.97-3.07.2-2.03-2.31-2.91-4.44-3.29ZM85.99,59.67c-.05.58-.12,1.3-12.86,1.31-.02,0-.09,0-.11-.01-.28,0-.74,0-1.38,0h-1s-1.01,0-1.01,0c-.63,0-1.1,0-1.32,0,0,0-.11.01-.11.01-12.8,0-12.86-.73-12.91-1.3-.02-.23.02-.58.33-.92,1.18-1.29,6.11-1.95,14.65-1.96h.73c8.55.01,13.48.67,14.65,1.96.31.34.36.69.33.92Z"></path><path class="uuid-896bfa28-e38a-4c0e-b6a4-3d15dccca0e6" d="M61.84,84.05c-.02,1.84-.03,3.69-.05,5.53,1.04.3,2.04.75,2.93,1.24,3.44,1.9,6.45,5.31,8.07,8.94,1.07-2.28,2.43-4.28,4.68-5.61.23-.14.48-.27.73-.4.21-10.82.44-22.4.67-36.97.16-10.15.56-20.34.22-30.48-.27-8.01.15-16.16.98-24.28l-16.28-.26c-.98,6.14-.98,12.49-.8,18.7.24,8.31.28,16.53.15,24.85-.32,20.03-1.06,18.69-1.3,38.73Z"></path><path class="uuid-3d9452b2-db83-4eef-a81f-7da5a3f00c6b" d="M78.48.68C76.86,0,74.82-.03,73.04.02c-1.97.05-4.29-.15-6.21.18-.76.13-2.11.56-2.53,1.21-.62.41-.96.97-.39,1.65,1.03,1.22,4.55.87,6.01.89,2.84.05,6.42.66,9.03-.52,1.88-.85,1.13-2.08-.47-2.75Z"></path><path class="uuid-414c9ac8-a700-4c9e-a261-7f265347c379" d="M85.95,59.25c.05.16.06.31.04.42-.05.58-.12,1.3-12.86,1.31-.02,0-.09,0-.11-.01-.28,0-.74,0-1.38,0h-1s-1.01,0-1.01,0c-.63,0-1.1,0-1.32,0,0,0-.11.01-.11.01-12.8,0-12.86-.73-12.91-1.3-.01-.12,0-.26.04-.42h-2.49s0,.04,0,.07c.23,2.32,3.55,2.92,4.97,3.07,3.66.39,7.51.37,11.25.35h1.58s1.58,0,1.58,0c3.73.02,7.59.04,11.25-.35,1.42-.15,4.75-.75,4.97-3.07,0-.02,0-.05,0-.07h-2.49Z"></path><path class="uuid-414c9ac8-a700-4c9e-a261-7f265347c379" d="M42.36,61.71c-7.89,5.87-14.41,11.78-18.63,20.78-.48,1.02,1.04,1.92,1.53.89,4.12-8.77,10.32-14.43,18-20.14.9-.67.02-2.21-.89-1.53Z"></path><path class="uuid-414c9ac8-a700-4c9e-a261-7f265347c379" d="M21.01,86.56c-.71,1.12-1.18,2.4-2.01,3.44-.71.88.54,2.14,1.25,1.25.94-1.17,1.49-2.54,2.29-3.8.61-.96-.92-1.85-1.53-.89Z"></path><path class="uuid-414c9ac8-a700-4c9e-a261-7f265347c379" d="M4.95,116.7c.08,3.68-.36,7.35-.4,11.03-.01,1.14,1.76,1.14,1.77,0,.04-3.68.48-7.35.4-11.03-.02-1.14-1.79-1.14-1.77,0Z"></path><path class="uuid-414c9ac8-a700-4c9e-a261-7f265347c379" d="M26.54,235.36c-.55-4.41-.45-8.86-.79-13.29-.72-9.31-2.31-18.51-3.35-27.79-2.09-18.75-3.2-37.93-3.63-56.79-.03-1.14-1.79-1.1-1.77.04.22,9.76.79,19.51,1.56,29.24.78,9.72,1.11,19.5,2.26,29.19,1.09,9.27,2.66,18.48,3.28,27.8.61,9.34,1.7,17.97,3.62,27.15.23,1.11,1.93.6,1.69-.5-1.04-5-2.24-9.97-2.87-15.04Z"></path><path class="uuid-414c9ac8-a700-4c9e-a261-7f265347c379" d="M25.83,170.58c-1.13-4.92-.97-10.79-1.19-15.84-.25-5.74-.25-11.5-.39-17.25-.03-1.14-1.79-1.09-1.77.05.15,6.32.13,12.65.47,18.97.25,4.71.13,10,1.19,14.59.26,1.11,1.95.59,1.69-.52Z"></path><path class="uuid-414c9ac8-a700-4c9e-a261-7f265347c379" d="M70.69,49.48s-.1,0-.11,0c-15.48.23-28.71,5.16-39.42,14.66-4.96,4.4-8.24,9.48-11.72,14.86-.95,1.46-1.9,2.95-2.91,4.44-3.66,5.42-6.08,12.53-6.64,19.52-.02.2-.17.37-.38.4-3.32.49-6.38,2.99-7.29,5.95-.02.08-.07.15-.13.2-.12.11-.21.25-.25.42C.14,116.26,0,122.54,0,130.08c0,.1.02.2.05.31.03.09.03.18,0,.27-.07.25-.06.49.05.66.09.15.26.24.49.28,3.24.51,6.48.62,9.79.71.24,0,.43.21.43.45-.13,9.22.74,18.55,1.59,27.57.46,4.93.94,10.04,1.25,15.07.53,8.63,1.6,17.36,2.64,25.79.69,5.58,1.4,11.35,1.94,17.04l.48,4.99c1.18,12.42,2.4,25.27,4.29,37.83.15,1.01.19,2.17.23,3.4.09,2.81.2,6,1.77,7.84.75.87,1.86,1.49,3.39,1.88.17.04.29.18.33.35.49,2.64,1.36,4.44,2.64,5.49,2.47,2.02,6.6,2.28,9.92,2.49.56.04,1.1.07,1.61.11,8.94.71,18.05.51,26.86.32l.88-.02.9.02c8.81.19,17.92.39,26.86-.32.51-.04,1.05-.08,1.61-.11,3.32-.21,7.45-.47,9.92-2.49,1.29-1.05,2.15-2.85,2.64-5.49.03-.17.16-.3.33-.35,1.53-.39,2.64-1,3.39-1.88,1.57-1.83,1.68-5.02,1.77-7.84.04-1.23.08-2.39.23-3.4,1.89-12.57,3.11-25.41,4.29-37.83l.48-4.99c.55-5.7,1.26-11.46,1.94-17.04,1.04-8.43,2.11-17.16,2.64-25.79.31-5.03.79-10.14,1.25-15.07.85-9.02,1.72-18.35,1.59-27.57,0-.24.19-.44.43-.45,3.31-.08,6.55-.2,9.79-.71.23-.04.4-.13.49-.28.11-.17.12-.42.05-.66-.03-.09-.02-.18,0-.27.04-.11.05-.2.05-.31,0-7.54-.14-13.82-1.84-20.13-.05-.18-.13-.32-.25-.42-.06-.05-.11-.13-.13-.2-.91-2.96-3.97-5.46-7.29-5.95-.2-.03-.36-.2-.38-.4-.56-6.98-2.98-14.1-6.64-19.52-1.01-1.5-1.97-2.98-2.91-4.44-3.47-5.38-6.75-10.45-11.72-14.86-10.71-9.5-23.95-14.43-39.34-14.66h-.09ZM110.49,275.17c-.51,1.85-1.24,3.13-2.15,3.79h0c-1.35.99-3.49,1.22-5.21,1.41-.26.03-.51.06-.74.08-3.91.48-8.18.73-13.45.79-1.23.02-2.5.02-3.9.02-1.29,0-2.68,0-4.24-.02-.1,0-.2-.04-.27-.1-.14-.11-.32-.17-.53-.17-3.12.02-6.24.07-9.35.13-3.13-.05-6.25-.1-9.37-.13-.21,0-.39.05-.53.17-.08.06-.17.1-.27.1-3.26.03-5.77.03-8.14,0-5.27-.06-9.54-.32-13.45-.79-.23-.03-.48-.05-.74-.08-1.72-.19-3.85-.42-5.21-1.41-.91-.67-1.64-1.94-2.15-3.79-.04-.14,0-.29.08-.4.09-.11.23-.17.38-.16.87.07,1.74.09,2.51.12l.62.02c9.11.32,18.09.55,26.7.69.07,0,.14.02.2.05.3.17.71.1,1.08.1,2.76,0,5.51-.02,8.27-.04,2.98.02,5.95.04,8.93.04.16,0,.3-.03.42-.1.06-.03.13-.05.21-.05,8.61-.14,17.59-.37,26.7-.69l.62-.02c.77-.02,1.64-.05,2.51-.12.15-.01.28.05.38.16.09.11.12.26.08.4ZM126.35,172.08c-.36,3.71-.72,7.42-1.04,11.11-.8,9.12-1.87,18.38-2.91,27.33-.86,7.39-1.74,15.04-2.47,22.56-1.02,10.55-2.08,19.26-3.34,27.41-.23,1.47-.34,2.97-.45,4.42-.06.83-.13,1.67-.21,2.51-.47,4.71-3.84,5.29-7.87,5.52-12.89.75-25.6.87-37.42.89-11.82-.02-24.53-.14-37.42-.89-4.02-.23-7.39-.81-7.87-5.52-.08-.84-.15-1.68-.21-2.51-.11-1.45-.23-2.95-.45-4.42-1.26-8.14-2.32-16.85-3.34-27.41-.73-7.53-1.61-15.17-2.47-22.56-1.04-8.95-2.11-18.21-2.91-27.33-.32-3.69-.68-7.39-1.04-11.11-1.24-12.9-2.53-26.23-2.34-39.27,0-.12.05-.23.14-.31.09-.08.2-.13.32-.12,1.01.03,2.01.06,3.01.1l2.35.11c5.13.24,10.44.49,15.66.64,10.14.29,20.46.26,30.44.24h6.13s6.13,0,6.13,0c9.98.03,20.3.05,30.44-.24,5.22-.15,10.53-.4,15.66-.64l2.35-.11c1-.05,2.01-.08,3.01-.1.11,0,.23.04.32.12.09.08.13.19.14.31.19,13.04-1.1,26.37-2.35,39.27ZM137.53,111.16c.21-.01.41.13.46.34,1.4,5.81,1.51,11.64,1.52,18.11,0,.22-.16.41-.38.44-3.78.51-7.69.58-11.48.65-1.82.03-3.71.07-5.54.15l-.72.03c-5.2.24-10.58.49-15.88.62-6.75.17-13.57.21-20.31.21-2.89,0-5.76,0-8.6-.01h-4.2s-.07-.01-.09-.02h-1.66s-1.69,0-1.69,0l-4.26.02c-9.47.02-19.27.05-28.91-.19-5.3-.13-10.68-.38-15.88-.62l-.72-.03c-1.83-.08-3.72-.12-5.54-.15-3.79-.07-7.71-.14-11.48-.65-.22-.03-.38-.22-.38-.44,0-6.47.12-12.29,1.52-18.11.05-.21.25-.36.46-.34,2.29.17,4.64.23,6.91.29,1.5.04,3,.08,4.5.15l2.34.11c5.13.24,10.45.49,15.67.64,10.13.29,20.43.26,30.4.24,2.36,0,4.72-.01,7.07-.01,2.36,0,4.72,0,7.08.01,9.97.03,20.27.05,30.39-.24,5.22-.15,10.53-.4,15.66-.64l2.35-.11c1.5-.07,3-.11,4.5-.15,2.27-.06,4.62-.12,6.91-.29ZM119.39,78.63c.94,1.44,1.91,2.93,2.93,4.42,4.16,6.04,6.83,13.45,7.33,20.34.02.24-.16.45-.4.47-.48.04-.97.09-1.45.14-1.02.1-2.08.21-3.14.24l-.8.02c-1.55.04-3.15.08-4.72.26-6.85.03-15.66.26-24.18.48-8.51.22-17.31.45-24.32.49-7.21-.01-14.54-.09-21.63-.16-6.34-.06-12.67-.13-19.01-.15h0c-.32,0-.56.13-.7.38-.17.29-.17.71,0,1.01.1.18.31.38.71.39,6.35.02,12.7.09,19.05.15,6.53.06,13.27.13,19.91.15.02,0,.09,0,.11,0h1.57s1.55,0,1.55,0c0,0,.13-.01.13-.01,6.73-.06,14.81-.27,22.62-.48,8.4-.22,17.08-.45,23.84-.48.12,0,.19,0,.26,0,1.61-.19,3.24-.23,4.81-.27l.78-.02c1.02-.03,2.06-.13,3.05-.23.87-.09,1.76-.18,2.66-.22.12,0,.23-.03.34-.08.04-.02.08-.03.12-.03.18-.02.34-.1.46-.21.1-.09.23-.13.36-.11,2.14.33,4.28,1.84,5.32,3.75.07.13.07.29,0,.42-.07.13-.21.22-.35.23-2.68.2-5.43.26-8.09.31-1.81.04-3.68.07-5.5.16l-.72.03c-5.2.24-10.59.49-15.89.62-6.73.17-13.54.2-20.26.2-2.87,0-5.73,0-8.56-.01h-6.61s-.32-.01-.32-.01h-.79s-6.14.01-6.14.01c-9.45.02-19.22.05-28.82-.19-5.3-.13-10.68-.38-15.89-.62l-.72-.03c-1.81-.08-3.69-.12-5.5-.16-2.66-.05-5.41-.11-8.09-.31-.15-.01-.28-.1-.35-.23-.07-.13-.07-.29,0-.42,1.04-1.91,3.17-3.42,5.32-3.75.13-.02.26.02.36.11.12.11.28.18.46.21.04,0,.08.02.12.03.11.05.22.07.34.08.9.04,1.79.13,2.66.22,1,.1,2.03.2,3.05.23l.78.02c1.58.04,3.21.08,4.81.27.28.03.49-.04.62-.22.18-.24.2-.64.06-.98-.08-.19-.29-.52-.78-.58-1.56-.18-3.17-.22-4.72-.26l-.8-.02c-1.06-.03-2.12-.14-3.15-.24-.48-.05-.96-.1-1.45-.14-.24-.02-.42-.23-.4-.47.5-6.88,3.17-14.3,7.33-20.34,1.02-1.49,2-2.98,2.93-4.42,3.1-4.76,6.03-9.26,10.56-13.27,10.34-9.17,23.19-13.92,38.19-14.11,15.01.19,27.86,4.93,38.2,14.11,4.52,4.01,7.45,8.51,10.56,13.27Z"></path></g></g></g></g></svg>