<svg xmlns="http://www.w3.org/2000/svg" viewBox="0 0 141.28 283.11"><defs><style>      .uuid-b8a9b8e6-f802-4c16-ae13-281d75cf7b67 {        fill: none;      }      .uuid-b8a9b8e6-f802-4c16-ae13-281d75cf7b67, .uuid-d8c10fb9-de28-4dcf-939d-bb28e62292ae, .uuid-b2f17ce6-3e99-41e2-8382-0a708fad0d1e, .uuid-5be89210-f6b1-40ae-bf82-869a09b357f6, .uuid-29f8471a-ba5a-42d7-8f95-455c080ab4c8, .uuid-bac71312-4cbd-482c-ac4d-4ab6faa52a01, .uuid-78343aa4-bae6-4b84-94f5-dec89819c889, .uuid-3bc94bb0-a0ff-40b0-abb4-91d66e367086, .uuid-8ca9a221-7f76-46ac-b736-a07678d9cc46 {        stroke-width: 0px;      }      .uuid-d8c10fb9-de28-4dcf-939d-bb28e62292ae, .uuid-55f3f444-3c86-45dd-9dfe-6b6b960ecd8c {        mix-blend-mode: multiply;        opacity: .3;      }      .uuid-d8c10fb9-de28-4dcf-939d-bb28e62292ae, .uuid-78343aa4-bae6-4b84-94f5-dec89819c889 {        fill: #7fa52d;      }      .uuid-b2f17ce6-3e99-41e2-8382-0a708fad0d1e {        opacity: .5;      }      .uuid-b2f17ce6-3e99-41e2-8382-0a708fad0d1e, .uuid-29f8471a-ba5a-42d7-8f95-455c080ab4c8 {        fill: #736357;      }      .uuid-ae43782b-ca4d-406b-b4ae-4fb8ca700015 {        isolation: isolate;      }      .uuid-5be89210-f6b1-40ae-bf82-869a09b357f6 {        fill: #534741;      }      .uuid-bac71312-4cbd-482c-ac4d-4ab6faa52a01 {        fill: #97bf3d;      }      .uuid-3bc94bb0-a0ff-40b0-abb4-91d66e367086 {        fill: #ffe380;      }      .uuid-8ca9a221-7f76-46ac-b736-a07678d9cc46 {        fill: #ebc863;      }    </style></defs><g class="uuid-ae43782b-ca4d-406b-b4ae-4fb8ca700015"><g id="uuid-e4e6c7d4-3583-4433-82c7-17e0ac5cc05a" data-name="Layer 2"><g id="uuid-9de169ee-1093-4968-ab95-34746a145d0c" data-name="objects"><g><path class="uuid-78343aa4-bae6-4b84-94f5-dec89819c889" d="M124.07,168.84c-.34,3.73-.69,7.45-1,11.15-.77,9.16-1.8,18.45-2.79,27.43-.82,7.42-1.67,15.09-2.37,22.65-.98,10.59-2,19.34-3.21,27.52-.22,1.48-.33,2.98-.44,4.44-.06.84-.12,1.67-.2,2.52-.45,4.73-3.69,5.31-7.55,5.54-12.37.76-24.57.88-35.9.89-11.34-.02-23.54-.14-35.91-.89-3.86-.24-7.09-.82-7.55-5.54-.08-.84-.14-1.68-.2-2.52-.11-1.46-.22-2.96-.44-4.44-1.21-8.17-2.23-16.92-3.21-27.52-.7-7.55-1.55-15.22-2.37-22.64-1-8.98-2.03-18.28-2.79-27.43-.31-3.7-.65-7.42-1-11.15-1.19-12.95-2.43-32.93-2.25-46.01,0-.12.05-.23.13-.31.08-.08.19-.13.3-.12.97.03,1.93.06,2.89.1l2.26.11c4.92.24,10.02.5,15.03.64,9.73.29,19.64.27,29.21.24h5.88s5.88,0,5.88,0c9.58.03,19.48.05,29.21-.24,5.01-.15,10.1-.4,15.03-.64l2.26-.11c.96-.05,1.93-.08,2.89-.1.11,0,.22.04.3.12s.14-.46.15-.35c.18,13.08-1.07,33.73-2.27,46.67Z"></path><path class="uuid-bac71312-4cbd-482c-ac4d-4ab6faa52a01" d="M115.64,116.7c-10.99-2.68-24.86-2.74-36.89-2.58-13.36.18-29.08-.58-42.08.71-5.13.51-13.42,2.37-17.35,4.29-4.19,1.61-6.32,4.21-2.47,6.85,6.96,4.76,30.83,3.38,40.75,3.48,19.24.2,43.51,2.58,61.22-2.01,12.72-3.3,7.65-8.09-3.19-10.73Z"></path><path class="uuid-d8c10fb9-de28-4dcf-939d-bb28e62292ae" d="M62.24,123.88c-.24,0-.49,0-.74,0-1.64,0-3.29-.1-4.82-.61-1.2-.4-1.45-1.52-.52-2.24.57-.44,1.25-.87,2.01-1.09.21-.01,1.19-.7.66-.72-.09-.06-.22-.1-.37-.08-.23.03-.47.09-.73.16-2.18.3-5.27,1.36-4.19,3.3,1.1,1.98,5.07,1.99,7.66,1.97.39,0,.74,0,1.04,0,.57,0,.57-.7,0-.7Z"></path><path class="uuid-d8c10fb9-de28-4dcf-939d-bb28e62292ae" d="M54.84,125.59c-2.69-.92-7.25-.8-8.74-3.16-2.26-3.58,8.17-4.32,8.12-4.49.14-.21.02-.53-.36-.52-2.92.03-6.23.12-8.95,1.06-1.75.6-4.19,2.1-3.78,3.86.34,1.47,3.13,2.78,4.69,3.28,2.74.87,5.92.74,8.8.63.39-.02.66-.5.22-.65Z"></path><path class="uuid-d8c10fb9-de28-4dcf-939d-bb28e62292ae" d="M77.41,124.58c.3,0,.65,0,1.04,0,2.59.03,6.56.01,7.66-1.97,1.08-1.95-2.01-3.01-4.19-3.3-.26-.08-.5-.13-.73-.16-.15-.02-.27.02-.37.08-.53.02.45.71.66.72.76.22,1.44.64,2.01,1.09.93.72.68,1.84-.52,2.24-1.53.5-3.18.6-4.82.61-.25,0-.5,0-.74,0-.57,0-.57.69,0,.7Z"></path><path class="uuid-d8c10fb9-de28-4dcf-939d-bb28e62292ae" d="M85.03,126.25c2.89.11,6.06.24,8.8-.63,1.56-.5,4.35-1.81,4.69-3.28.41-1.76-2.03-3.25-3.78-3.86-2.72-.94-6.03-1.03-8.95-1.06-.39,0-.5.31-.36.52-.06.17,10.38.91,8.12,4.49-1.49,2.36-6.05,2.24-8.74,3.16-.43.15-.17.64.22.65Z"></path><g><path class="uuid-3bc94bb0-a0ff-40b0-abb4-91d66e367086" d="M48.93,198.81c-7.39,0-7.41,11.49,0,11.49s7.41-11.49,0-11.49Z"></path><path class="uuid-8ca9a221-7f76-46ac-b736-a07678d9cc46" d="M53.46,203.77c-.16-.97-.98-1.74-2.05-1.28-.52.22-.77.68-1.03,1.16-.52.96-1.16,1.72-2.18,2.17-1.02.46-2.49.72-2.27,2.21.15,1.04,1.27,1.3,2.16,1.33,2.91.09,5.37-2.25,5.53-5.14.01-.2-.05-.35-.16-.46Z"></path></g><g><path class="uuid-3bc94bb0-a0ff-40b0-abb4-91d66e367086" d="M85.21,221.61c-7.39,0-7.41,11.49,0,11.49s7.41-11.49,0-11.49Z"></path><path class="uuid-8ca9a221-7f76-46ac-b736-a07678d9cc46" d="M90.04,226.59c-.16-.97-.98-1.74-2.05-1.28-.52.22-.77.68-1.03,1.16-.52.96-1.16,1.72-2.18,2.17-1.02.46-2.49.72-2.27,2.21.15,1.04,1.27,1.31,2.16,1.33,2.91.09,5.37-2.25,5.53-5.14.01-.2-.05-.35-.16-.46Z"></path></g><g><path class="uuid-3bc94bb0-a0ff-40b0-abb4-91d66e367086" d="M68.3,232.72c-7.04-2.25-10.56,8.68-3.5,10.94,7.04,2.25,10.56-8.68,3.5-10.94Z"></path><path class="uuid-8ca9a221-7f76-46ac-b736-a07678d9cc46" d="M71.55,239.21c.14-.97-.4-1.95-1.56-1.84-.56.05-.94.41-1.33.79-.79.76-1.63,1.28-2.74,1.4-1.12.12-2.59-.07-2.84,1.41-.18,1.04.81,1.63,1.65,1.93,2.74.97,5.8-.51,6.83-3.21.07-.19.05-.35-.01-.48Z"></path></g><g><path class="uuid-3bc94bb0-a0ff-40b0-abb4-91d66e367086" d="M103.56,204.04c-6.39-3.72-12.18,6.2-5.78,9.93,6.39,3.72,12.18-6.2,5.78-9.93Z"></path><path class="uuid-8ca9a221-7f76-46ac-b736-a07678d9cc46" d="M105.13,211.1c.35-.92.03-1.99-1.13-2.13-.56-.07-1.01.2-1.47.48-.93.57-1.87.9-2.98.78-1.12-.12-2.51-.63-3.08.76-.4.97.44,1.77,1.2,2.24,2.47,1.54,5.77.76,7.37-1.66.11-.17.13-.33.09-.47Z"></path></g><g><path class="uuid-3bc94bb0-a0ff-40b0-abb4-91d66e367086" d="M98.28,239.86c-7.39,0-7.41,11.49,0,11.49s7.41-11.49,0-11.49Z"></path><path class="uuid-8ca9a221-7f76-46ac-b736-a07678d9cc46" d="M102.59,247.68c.35-.92.03-1.99-1.13-2.13-.56-.07-1.01.2-1.47.48-.93.57-1.87.9-2.98.78-1.12-.12-2.51-.63-3.08.76-.4.97.44,1.77,1.2,2.24,2.47,1.54,5.77.76,7.37-1.66.11-.17.13-.33.09-.47Z"></path></g><g><path class="uuid-3bc94bb0-a0ff-40b0-abb4-91d66e367086" d="M35.46,219.77c-7.39,0-7.41,11.49,0,11.49s7.41-11.49,0-11.49Z"></path><path class="uuid-8ca9a221-7f76-46ac-b736-a07678d9cc46" d="M39.78,227.41c.35-.92.03-1.99-1.13-2.13-.56-.07-1.01.2-1.47.48-.93.57-1.87.9-2.98.78-1.12-.12-2.51-.63-3.08.76-.4.97.44,1.77,1.2,2.24,2.47,1.54,5.77.76,7.37-1.66.11-.17.13-.33.09-.47Z"></path></g><g><path class="uuid-3bc94bb0-a0ff-40b0-abb4-91d66e367086" d="M107.36,222.57c-7.39,0-7.41,11.49,0,11.49s7.41-11.49,0-11.49Z"></path><path class="uuid-8ca9a221-7f76-46ac-b736-a07678d9cc46" d="M106.66,232.61c1.08.44,2.88-.44,3.56-1.3.04-.05.07-.11.1-.16.5-.49.75-1.09.39-1.75-.67-1.22-2.7-.15-3.57.31-.56.29-1.18.71-1.34,1.37-.15.65.26,1.3.86,1.54Z"></path></g><g><path class="uuid-3bc94bb0-a0ff-40b0-abb4-91d66e367086" d="M86.35,188.84c-7.39,0-7.41,11.49,0,11.49s7.41-11.49,0-11.49Z"></path><path class="uuid-8ca9a221-7f76-46ac-b736-a07678d9cc46" d="M85.58,199.37c1.08.44,2.88-.44,3.56-1.3.04-.05.07-.11.1-.16.5-.49.75-1.09.39-1.75-.67-1.22-2.7-.15-3.57.31-.56.29-1.18.71-1.34,1.37-.15.65.26,1.3.86,1.54Z"></path><path class="uuid-8ca9a221-7f76-46ac-b736-a07678d9cc46" d="M89.94,194.71c.07.02.14.03.21.02.7-.02,1.04-.72.84-1.33-.17-.52-.64-.92-1.19-.94-.72-.02-1.44.66-1.21,1.41.17.55.78.89,1.35.84Z"></path></g><g><path class="uuid-3bc94bb0-a0ff-40b0-abb4-91d66e367086" d="M103.83,253.83c-7.39,0-7.41,11.49,0,11.49s7.41-11.49,0-11.49Z"></path><path class="uuid-8ca9a221-7f76-46ac-b736-a07678d9cc46" d="M103.15,264.57c1.08.44,2.88-.44,3.56-1.3.04-.05.07-.11.1-.16.5-.49.75-1.09.39-1.75-.67-1.22-2.7-.15-3.57.31-.56.29-1.18.71-1.34,1.37-.15.65.26,1.3.86,1.54Z"></path></g><g><path class="uuid-3bc94bb0-a0ff-40b0-abb4-91d66e367086" d="M37.62,254c-7.39,0-7.41,11.49,0,11.49s7.41-11.49,0-11.49Z"></path><path class="uuid-8ca9a221-7f76-46ac-b736-a07678d9cc46" d="M36.6,264.37c1.37.55,3.65-.55,4.52-1.65.05-.07.08-.14.12-.21.63-.62.95-1.39.49-2.23-.85-1.55-3.43-.19-4.54.39-.71.37-1.5.91-1.69,1.74-.19.83.33,1.64,1.09,1.95Z"></path></g><g><path class="uuid-3bc94bb0-a0ff-40b0-abb4-91d66e367086" d="M78.37,255.73c-7.39,0-7.41,11.49,0,11.49s7.41-11.49,0-11.49Z"></path><path class="uuid-8ca9a221-7f76-46ac-b736-a07678d9cc46" d="M81.23,260.72c.07.02.14.03.21.02.7-.02,1.04-.72.84-1.33-.17-.52-.64-.92-1.19-.94-.72-.02-1.44.66-1.21,1.41.17.55.78.89,1.35.84Z"></path><path class="uuid-8ca9a221-7f76-46ac-b736-a07678d9cc46" d="M81.16,264.68c.07.02.14.03.21.02.7-.02,1.04-.72.84-1.33-.17-.52-.64-.92-1.19-.94-.72-.02-1.44.66-1.21,1.41.17.55.78.9,1.35.84Z"></path></g><g><path class="uuid-3bc94bb0-a0ff-40b0-abb4-91d66e367086" d="M57.95,218.1c-7.39,0-7.41,11.49,0,11.49s7.41-11.49,0-11.49Z"></path><path class="uuid-8ca9a221-7f76-46ac-b736-a07678d9cc46" d="M57.36,228.51c1.08.44,2.88-.44,3.56-1.3.04-.05.07-.11.1-.16.5-.49.75-1.09.39-1.75-.67-1.22-2.7-.15-3.57.31-.56.29-1.18.71-1.34,1.37-.15.65.26,1.3.86,1.54Z"></path><path class="uuid-8ca9a221-7f76-46ac-b736-a07678d9cc46" d="M61.72,223.85c.07.02.14.03.21.02.7-.02,1.04-.72.84-1.33-.17-.52-.64-.92-1.19-.94-.72-.02-1.44.66-1.21,1.41.17.55.78.89,1.35.84Z"></path></g><g><path class="uuid-3bc94bb0-a0ff-40b0-abb4-91d66e367086" d="M49.39,235.85c-5.99-4.33-12.73,4.97-6.73,9.31,5.99,4.33,12.73-4.97,6.73-9.31Z"></path><path class="uuid-8ca9a221-7f76-46ac-b736-a07678d9cc46" d="M42.15,244.18c.62.98,2.59,1.33,3.65,1.03.06-.02.12-.05.17-.08.69-.11,1.25-.45,1.34-1.19.17-1.38-2.1-1.7-3.08-1.84-.63-.09-1.38-.12-1.89.33-.5.44-.55,1.2-.2,1.75Z"></path><path class="uuid-8ca9a221-7f76-46ac-b736-a07678d9cc46" d="M48.41,242.95c.05.05.1.1.16.14.58.39,1.27.02,1.46-.59.17-.52.02-1.12-.42-1.46-.57-.44-1.55-.31-1.8.43-.18.55.11,1.18.6,1.47Z"></path></g><g><path class="uuid-3bc94bb0-a0ff-40b0-abb4-91d66e367086" d="M81.02,240.5c-7.39,0-7.41,11.49,0,11.49s7.41-11.49,0-11.49Z"></path><path class="uuid-8ca9a221-7f76-46ac-b736-a07678d9cc46" d="M79.99,250.88c1.08.44,2.88-.44,3.56-1.3.04-.05.07-.11.1-.16.5-.49.75-1.09.39-1.75-.67-1.22-2.7-.15-3.57.31-.56.29-1.18.71-1.34,1.37-.15.65.26,1.3.86,1.54Z"></path><path class="uuid-8ca9a221-7f76-46ac-b736-a07678d9cc46" d="M84.35,246.21c.07.02.14.03.21.02.7-.02,1.04-.72.84-1.33-.17-.52-.64-.92-1.19-.94-.72-.02-1.44.66-1.21,1.41.17.55.78.89,1.35.84Z"></path></g><g><path class="uuid-3bc94bb0-a0ff-40b0-abb4-91d66e367086" d="M56.36,251c-7.1,2.05-3.92,13.09,3.19,11.04,7.1-2.05,3.92-13.09-3.19-11.04Z"></path><path class="uuid-8ca9a221-7f76-46ac-b736-a07678d9cc46" d="M58.85,261.43c1.16.12,2.64-1.22,3.06-2.24.03-.06.03-.12.05-.18.34-.61.42-1.26-.11-1.79-.98-.99-2.64.6-3.35,1.29-.46.44-.94,1.01-.9,1.69.04.67.61,1.17,1.26,1.24Z"></path><path class="uuid-8ca9a221-7f76-46ac-b736-a07678d9cc46" d="M61.74,255.74c.07,0,.14-.01.21-.03.66-.21.8-.98.44-1.51-.3-.45-.87-.71-1.4-.57-.69.18-1.2,1.03-.77,1.69.32.48,1,.64,1.53.43Z"></path></g><g class="uuid-55f3f444-3c86-45dd-9dfe-6b6b960ecd8c"><path class="uuid-78343aa4-bae6-4b84-94f5-dec89819c889" d="M93.27,199.97c-7.39,0-7.41,11.49,0,11.49s7.41-11.49,0-11.49Z"></path><path class="uuid-78343aa4-bae6-4b84-94f5-dec89819c889" d="M100.42,186.36c-4.55,0-4.56,7.07,0,7.07s4.56-7.07,0-7.07Z"></path><path class="uuid-78343aa4-bae6-4b84-94f5-dec89819c889" d="M86.38,176.9c-2.27,0-2.28,3.54,0,3.54s2.28-3.54,0-3.54Z"></path><path class="uuid-78343aa4-bae6-4b84-94f5-dec89819c889" d="M93.53,164.39c-2.27,0-2.28,3.54,0,3.54s2.28-3.54,0-3.54Z"></path><path class="uuid-78343aa4-bae6-4b84-94f5-dec89819c889" d="M92.25,150.47c-1.14,0-1.14,1.77,0,1.77s1.14-1.77,0-1.77Z"></path><path class="uuid-78343aa4-bae6-4b84-94f5-dec89819c889" d="M55.54,198.09c-2.27,0-2.28,3.54,0,3.54s2.28-3.54,0-3.54Z"></path><path class="uuid-78343aa4-bae6-4b84-94f5-dec89819c889" d="M54.26,184.17c-1.14,0-1.14,1.77,0,1.77s1.14-1.77,0-1.77Z"></path></g><path class="uuid-d8c10fb9-de28-4dcf-939d-bb28e62292ae" d="M120.97,185.02c-7.15,8.12-12.29,17.66-18.01,26.78-2.87,4.57-6.5,8.75-11.75,10.53-5.95,2.02-13.49,1.62-19.49.06-6.95-1.81-11.91-6.96-16.24-12.44-4.84-6.14-8.69-12.96-12.94-19.51-3.63-5.61-8.48-12.62-15.58-13.84-2.9-.5-6.25.37-8.93,2.12.04.42.08.85.11,1.28.77,9.16,1.8,18.45,2.79,27.43.82,7.42,1.67,15.09,2.37,22.64.98,10.6,2,19.34,3.21,27.52.22,1.48.33,2.98.44,4.44.06.84.12,1.67.2,2.52.45,4.73,3.69,5.31,7.55,5.54,12.37.76,24.57.87,35.91.89,11.34-.02,23.53-.14,35.9-.89,3.86-.24,7.09-.82,7.55-5.54.08-.84.14-1.68.2-2.52.11-1.46.22-2.96.44-4.44,1.21-8.18,2.23-16.92,3.21-27.52.7-7.56,1.55-15.23,2.37-22.65.89-7.99,1.79-16.22,2.52-24.39-.63.66-1.24,1.32-1.83,1.99Z"></path><path class="uuid-d8c10fb9-de28-4dcf-939d-bb28e62292ae" d="M91.99,250.75c-10.11,1.43-20.99-.6-29.92-5.52-9.71-5.35-16.01-14.64-25.17-20.67-4.38-2.88-9.34-4.76-14.61-4.88.36,3.46.72,6.93,1.04,10.38.98,10.6,2,19.34,3.21,27.52.22,1.48.33,2.98.44,4.44.06.84.12,1.67.2,2.52.45,4.73,3.69,5.31,7.55,5.54,12.37.76,24.57.87,35.91.89,11.34-.02,23.53-.14,35.9-.89,3.86-.24,7.09-.82,7.55-5.54.08-.84.14-1.68.2-2.52.11-1.46.22-2.96.44-4.44.84-5.69,1.59-11.68,2.3-18.35-7.31,5.66-15.8,10.21-25.02,11.52Z"></path><polygon class="uuid-b8a9b8e6-f802-4c16-ae13-281d75cf7b67" points="70.75 49.05 70.75 49.05 70.75 49.05 70.75 49.05"></polygon><path class="uuid-5be89210-f6b1-40ae-bf82-869a09b357f6" d="M70.69,49.48s-.1,0-.11,0c-15.48.23-28.71,5.16-39.42,14.66-4.96,4.4-8.24,9.48-11.72,14.86-.95,1.46-1.9,2.95-2.91,4.44-3.66,5.42-6.08,12.53-6.64,19.52-.02.2-.17.37-.38.4-3.32.49-6.38,2.99-7.29,5.95-.02.08-.07.15-.13.2-.12.11-.21.25-.25.42C.14,116.26,0,122.54,0,130.08c0,.1.02.2.05.31.03.09.03.18,0,.27-.07.25-.06.49.05.66.09.15.26.24.49.28,3.24.51,6.48.62,9.79.71.24,0,.43.21.43.45-.13,9.22.74,18.55,1.59,27.57.46,4.93.94,10.04,1.25,15.07.53,8.63,1.6,17.36,2.64,25.79.69,5.58,1.4,11.35,1.94,17.04l.48,4.99c1.18,12.42,2.4,25.27,4.29,37.83.15,1.01.19,2.17.23,3.4.09,2.81.2,6,1.77,7.84.75.87,1.86,1.49,3.39,1.88.17.04.29.18.33.35.49,2.64,1.36,4.44,2.64,5.49,2.47,2.02,6.6,2.28,9.92,2.49.56.04,1.1.07,1.61.11,8.94.71,18.05.51,26.86.32l.88-.02.9.02c8.81.19,17.92.39,26.86-.32.51-.04,1.05-.08,1.61-.11,3.32-.21,7.45-.47,9.92-2.49,1.29-1.05,2.15-2.85,2.64-5.49.03-.17.16-.3.33-.35,1.53-.39,2.64-1,3.39-1.88,1.57-1.83,1.68-5.02,1.77-7.84.04-1.23.08-2.39.23-3.4,1.89-12.57,3.11-25.41,4.29-37.83l.48-4.99c.55-5.7,1.26-11.46,1.94-17.04,1.04-8.43,2.11-17.16,2.64-25.79.31-5.03.79-10.14,1.25-15.07.85-9.02,1.72-18.35,1.59-27.57,0-.24.19-.44.43-.45,3.31-.08,6.55-.2,9.79-.71.23-.04.4-.13.49-.28.11-.17.12-.42.05-.66-.03-.09-.02-.18,0-.27.04-.11.05-.2.05-.31,0-7.54-.14-13.82-1.84-20.13-.05-.18-.13-.32-.25-.42-.06-.05-.11-.13-.13-.2-.91-2.96-3.97-5.46-7.29-5.95-.2-.03-.36-.2-.38-.4-.56-6.98-2.98-14.1-6.64-19.52-1.01-1.5-1.97-2.98-2.91-4.44-3.47-5.38-6.75-10.45-11.72-14.86-10.71-9.5-23.95-14.43-39.34-14.66h-.09ZM110.49,275.17c-.51,1.85-1.24,3.13-2.15,3.79h0c-1.35.99-3.49,1.22-5.21,1.41-.26.03-.51.06-.74.08-3.91.48-8.18.73-13.45.79-1.23.02-2.5.02-3.9.02-1.29,0-2.68,0-4.24-.02-.1,0-.2-.04-.27-.1-.14-.11-.32-.17-.53-.17-3.12.02-6.24.07-9.35.13-3.13-.05-6.25-.1-9.37-.13-.21,0-.39.05-.53.17-.08.06-.17.1-.27.1-3.26.03-5.77.03-8.14,0-5.27-.06-9.54-.32-13.45-.79-.23-.03-.48-.05-.74-.08-1.72-.19-3.85-.42-5.21-1.41-.91-.67-1.64-1.94-2.15-3.79-.04-.14,0-.29.08-.4.09-.11.23-.17.38-.16.87.07,1.74.09,2.51.12l.62.02c9.11.32,18.09.55,26.7.69.07,0,.14.02.2.05.3.17.71.1,1.08.1,2.76,0,5.51-.02,8.27-.04,2.98.02,5.95.04,8.93.04.16,0,.3-.03.42-.1.06-.03.13-.05.2-.05,8.61-.14,17.59-.37,26.7-.69l.62-.02c.77-.02,1.64-.05,2.51-.12.15-.01.28.05.38.16.09.11.12.26.08.4ZM126.35,172.08c-.36,3.71-.72,7.42-1.04,11.11-.8,9.12-1.87,18.38-2.91,27.33-.86,7.39-1.74,15.04-2.47,22.56-1.02,10.55-2.08,19.26-3.34,27.41-.23,1.47-.34,2.97-.45,4.42-.06.83-.13,1.67-.21,2.51-.47,4.71-3.84,5.29-7.87,5.52-12.89.75-25.6.87-37.42.89-11.82-.02-24.53-.14-37.42-.89-4.02-.23-7.39-.81-7.87-5.52-.08-.84-.15-1.68-.21-2.51-.11-1.45-.23-2.95-.45-4.42-1.26-8.14-2.32-16.85-3.34-27.41-.73-7.53-1.61-15.17-2.47-22.56-1.04-8.95-2.11-18.21-2.91-27.33-.32-3.69-.68-7.39-1.04-11.11-1.24-12.9-2.53-26.23-2.35-39.27,0-.12.05-.23.14-.31.08-.08.2-.13.32-.12,1.01.03,2.01.06,3.01.1l2.35.11c5.13.24,10.44.49,15.66.64,10.14.29,20.46.26,30.44.24h6.13s6.13,0,6.13,0c9.98.03,20.3.05,30.44-.24,5.22-.15,10.53-.4,15.66-.64l2.35-.11c1-.05,2.01-.08,3.01-.1.11,0,.23.04.32.12s.13.19.14.31c.19,13.04-1.1,26.37-2.34,39.27ZM137.53,111.16c.21-.01.41.13.46.34,1.4,5.81,1.51,11.64,1.52,18.11,0,.22-.16.41-.38.44-3.78.51-7.69.58-11.48.65-1.82.03-3.71.07-5.54.15l-.72.03c-5.2.24-10.58.49-15.88.62-6.75.17-13.57.21-20.31.21-2.89,0-5.76,0-8.6-.01h-4.2s-.07-.01-.09-.02h-1.66s-1.69,0-1.69,0l-4.26.02c-9.47.02-19.27.05-28.91-.19-5.3-.13-10.68-.38-15.88-.62l-.72-.03c-1.83-.08-3.72-.12-5.54-.15-3.79-.07-7.71-.14-11.48-.65-.22-.03-.38-.22-.38-.44,0-6.47.12-12.29,1.52-18.11.05-.21.25-.36.46-.34,2.29.17,4.64.23,6.91.29,1.5.04,3,.08,4.5.15l2.34.11c5.13.24,10.45.49,15.67.64,10.13.29,20.43.26,30.4.24,2.36,0,4.72-.01,7.07-.01,2.36,0,4.72,0,7.08.01,9.97.03,20.27.05,30.39-.24,5.22-.15,10.53-.4,15.66-.64l2.35-.11c1.5-.07,3-.11,4.5-.15,2.27-.06,4.62-.12,6.91-.29ZM119.39,78.63c.94,1.44,1.91,2.93,2.93,4.42,4.16,6.04,6.83,13.45,7.33,20.34.02.24-.16.45-.4.47-.48.04-.97.09-1.45.14-1.02.1-2.08.21-3.14.24l-.8.02c-1.55.04-3.16.08-4.72.26-6.85.03-15.66.26-24.18.48-8.51.22-17.31.45-24.32.49-7.21-.01-14.54-.09-21.63-.16-6.34-.06-12.67-.13-19.01-.15h0c-.32,0-.56.13-.7.38-.17.29-.17.71,0,1.01.1.18.31.38.71.39,6.35.02,12.7.09,19.05.15,6.53.06,13.27.13,19.91.15.02,0,.09,0,.11,0h1.57s1.55,0,1.55,0c0,0,.13-.01.13-.01,6.73-.06,14.81-.27,22.62-.48,8.4-.22,17.08-.45,23.84-.48.12,0,.19,0,.26,0,1.61-.19,3.24-.23,4.81-.27l.78-.02c1.02-.03,2.05-.13,3.05-.23.87-.09,1.76-.18,2.66-.22.12,0,.23-.03.34-.08.04-.02.08-.03.12-.03.18-.02.34-.1.46-.21.1-.09.23-.13.36-.11,2.14.33,4.28,1.84,5.32,3.75.07.13.07.29,0,.42-.07.13-.21.22-.35.23-2.68.2-5.43.26-8.09.31-1.81.04-3.68.07-5.5.16l-.72.03c-5.2.24-10.59.49-15.89.62-6.73.17-13.54.2-20.26.2-2.87,0-5.73,0-8.56-.01h-6.61s-.32-.01-.32-.01h-.79s-6.14.01-6.14.01c-9.45.02-19.22.05-28.82-.19-5.3-.13-10.68-.38-15.89-.62l-.72-.03c-1.81-.08-3.69-.12-5.5-.16-2.66-.05-5.41-.11-8.09-.31-.15-.01-.28-.1-.35-.23-.07-.13-.07-.29,0-.42,1.04-1.91,3.17-3.42,5.32-3.75.13-.02.26.02.36.11.12.11.28.18.46.21.04,0,.08.02.12.03.11.05.22.07.34.08.9.04,1.79.13,2.66.22,1,.1,2.03.2,3.05.23l.78.02c1.58.04,3.21.08,4.81.27.28.03.49-.04.62-.22.18-.24.2-.64.06-.98-.08-.19-.29-.52-.78-.58-1.56-.18-3.17-.22-4.72-.26l-.8-.02c-1.06-.03-2.12-.14-3.15-.24-.48-.05-.96-.1-1.45-.14-.24-.02-.42-.23-.4-.47.5-6.88,3.17-14.3,7.33-20.34,1.02-1.49,2-2.98,2.93-4.42,3.1-4.76,6.03-9.26,10.56-13.27,10.34-9.17,23.19-13.92,38.19-14.11,15.01.19,27.86,4.93,38.2,14.11,4.52,4.01,7.45,8.51,10.56,13.27Z"></path><path class="uuid-5be89210-f6b1-40ae-bf82-869a09b357f6" d="M84,56.03c-4.23-.75-8.54-.92-12.2-.97-.13-.02-.19-.02-.26-.03h-.89s-.9,0-.9,0c-.08,0-.13,0-.19.02-3.73.07-8.04.23-12.27.98-2.14.38-4.64,1.26-4.44,3.29.23,2.32,3.55,2.92,4.97,3.07,3.66.39,7.51.37,11.25.35h1.58s1.58,0,1.58,0c3.73.02,7.59.04,11.25-.35,1.42-.15,4.75-.75,4.97-3.07.2-2.03-2.31-2.91-4.44-3.29ZM85.99,59.67c-.05.58-.12,1.3-12.86,1.31-.02,0-.09,0-.11-.01-.28,0-.74,0-1.38,0h-1s-1.01,0-1.01,0c-.63,0-1.1,0-1.32,0,0,0-.11.01-.11.01-12.8,0-12.86-.73-12.91-1.3-.02-.23.02-.58.33-.92,1.18-1.29,6.11-1.95,14.65-1.96h.73c8.55.01,13.48.67,14.65,1.96.31.34.36.69.33.92Z"></path><path class="uuid-b2f17ce6-3e99-41e2-8382-0a708fad0d1e" d="M79.36,237.37c-.06-9.4-.98-18.86-1.48-28.24-1-19.01-.79-37.9-.6-56.94.04-4.28.09-8.29.13-12.11-1.7.5-3.51.73-5.35.79-2.14.06-4.38.2-6.52,0-1.43-.13-2.77-.56-4.08-1.08-.01,1.68-.02,3.37-.03,5.05-.15,19.71-.66,39.35.29,59.05.52,10.77,1.55,21.58,1.73,32.37.17,9.95-1.48,19.67.4,29.5,0,0,1.63,1.51,8.08,1.51s7.58-1.26,7.58-1.26c.22-1.26.22-2.65-.1-4.16-1.68-7.99,0-16.36-.05-24.48Z"></path><path class="uuid-29f8471a-ba5a-42d7-8f95-455c080ab4c8" d="M61.84,84.05c-.14,12.39-.21,24.78-.27,37.17,2.17,1.42,4.76,1.54,7.35,1.73,1.59.12,3.19.23,4.78.02,1.55-.21,2.8-.86,3.98-1.73.34-20.71.75-37.44,1.19-64.45.16-10.15.56-20.34.22-30.48-.27-8.01.15-16.16.98-24.28l-16.28-.26c-.98,6.14-.98,12.49-.8,18.7.24,8.31.28,16.53.15,24.85-.32,20.03-1.06,18.69-1.3,38.73Z"></path><path class="uuid-5be89210-f6b1-40ae-bf82-869a09b357f6" d="M78.48.68C76.86,0,74.82-.03,73.04.02c-1.97.05-4.29-.15-6.21.18-.76.13-2.11.56-2.53,1.21-.62.41-.96.97-.39,1.65,1.03,1.22,4.55.87,6.01.89,2.84.05,6.42.66,9.03-.52,1.88-.85,1.13-2.08-.47-2.75Z"></path><path class="uuid-5be89210-f6b1-40ae-bf82-869a09b357f6" d="M85.95,59.25c.05.16.06.31.04.42-.05.58-.12,1.3-12.86,1.31-.02,0-.09,0-.11-.01-.28,0-.74,0-1.38,0h-1s-1.01,0-1.01,0c-.63,0-1.1,0-1.32,0,0,0-.11.01-.11.01-12.8,0-12.86-.73-12.91-1.3-.01-.12,0-.26.04-.42h-2.49s0,.04,0,.07c.23,2.32,3.55,2.92,4.97,3.07,3.66.39,7.51.37,11.25.35h1.58s1.58,0,1.58,0c3.73.02,7.59.04,11.25-.35,1.42-.15,4.75-.75,4.97-3.07,0-.02,0-.05,0-.07h-2.49Z"></path><path class="uuid-5be89210-f6b1-40ae-bf82-869a09b357f6" d="M70.64,105.49c-4.45,0-8.94-.04-13.39-.08v1.77c3.9.03,7.82.06,11.7.08.02,0,.09,0,.11,0h1.57s1.55,0,1.55,0c0,0,.13-.01.13-.01,3.79-.04,8.01-.12,12.36-.22v-1.77c-5.02.12-9.85.21-14.04.23Z"></path><path class="uuid-5be89210-f6b1-40ae-bf82-869a09b357f6" d="M72.39,131.69s-.07,0-.09,0h-1.66s-1.69,0-1.69,0l-4.26.02c-2.46,0-4.94.01-7.44.01v1.77c2.43,0,4.86,0,7.26-.01h6.13s6.13,0,6.13,0c2.61,0,5.25.01,7.9.01v-1.77c-2.71,0-5.41,0-8.08-.01h-4.2Z"></path><path class="uuid-5be89210-f6b1-40ae-bf82-869a09b357f6" d="M70.96,110.82h-.32s-.79,0-.79,0l-6.14.02c-2.14,0-4.3.01-6.46.01v1.77c2.12,0,4.23,0,6.32-.01,2.36,0,4.72-.01,7.07-.01,2.36,0,4.72,0,7.08.01,2.3,0,4.62.01,6.96.01v-1.77c-2.38,0-4.75,0-7.1-.01h-6.61Z"></path><path class="uuid-5be89210-f6b1-40ae-bf82-869a09b357f6" d="M42.36,61.71c-7.89,5.87-14.41,11.78-18.63,20.78-.48,1.02,1.04,1.92,1.53.89,4.12-8.77,10.32-14.43,18-20.14.9-.67.02-2.21-.89-1.53Z"></path><path class="uuid-5be89210-f6b1-40ae-bf82-869a09b357f6" d="M21.01,86.56c-.71,1.12-1.18,2.4-2.01,3.44-.71.88.54,2.14,1.25,1.25.94-1.17,1.49-2.54,2.29-3.8.61-.96-.92-1.85-1.53-.89Z"></path><path class="uuid-5be89210-f6b1-40ae-bf82-869a09b357f6" d="M4.95,116.7c.08,3.68-.36,7.35-.4,11.03-.01,1.14,1.76,1.14,1.77,0,.04-3.68.48-7.35.4-11.03-.02-1.14-1.79-1.14-1.77,0Z"></path><path class="uuid-5be89210-f6b1-40ae-bf82-869a09b357f6" d="M25.53,223.19c.13.57.89.8,1.41.55.22-.11.3-.39.35-.68-.02-.33-.04-.66-.06-.98-.72-9.31-2.31-18.51-3.35-27.79-2.09-18.75-3.2-37.93-3.63-56.79-.03-1.14-1.79-1.1-1.77.04.22,9.76.79,19.51,1.56,29.24.78,9.72,1.11,19.5,2.26,29.19,1.07,9.08,2.59,18.1,3.23,27.22,0,0,0,0,0,0Z"></path><path class="uuid-5be89210-f6b1-40ae-bf82-869a09b357f6" d="M30.89,250.41c-1.04-5-2.24-9.97-2.87-15.04-.16-1.25-.25-2.51-.33-3.77-.13-.82-1.25-1.26-1.42-.21-.01.09-.02.18-.03.28.65,6.44,1.58,12.71,2.95,19.25.23,1.11,1.93.6,1.69-.5Z"></path></g></g></g></g></svg>