<?xml version="1.0" encoding="UTF-8"?> <!-- Generator: Adobe Illustrator 21.0.0, SVG Export Plug-In . SVG Version: 6.00 Build 0) --> <svg xmlns="http://www.w3.org/2000/svg" xmlns:xlink="http://www.w3.org/1999/xlink" version="1.1" id="trevel-infobox-2" x="0px" y="0px" viewBox="0 0 93 83" style="enable-background:new 0 0 93 83;" xml:space="preserve"> <path id="circle" style="fill:#FFD200;" d="M68,33L68,33c13.8,0,25,11.2,25,25v0c0,13.8-11.2,25-25,25h0c-13.8,0-25-11.2-25-25v0 C43,44.2,54.2,33,68,33z"></path> <path id="img" style="fill:#74BFFE;" d="M77.7,79h-5.3c-0.7,0-1.3-0.6-1.3-1.3c0,0,0,0,0,0V65.8H23.7V79h-2.6V65.8H7.9v11.9 c0,0.7-0.6,1.3-1.3,1.3c0,0,0,0,0,0H1.3C0.6,79,0,78.4,0,77.7c0,0,0,0,0,0V59.3c0-0.7,0.6-1.3,1.3-1.3c0,0,0,0,0,0h19.8V25.6 c-2.4-2.1-6-1.9-8.3,0.3c-0.5,0.5-1.3,0.5-1.9,0c-2.4-2.4-6.3-2.4-8.7,0c-0.5,0.5-1.4,0.5-1.9,0C0.1,25.7,0,25.4,0,25v-2.6 C0.1,10,10.2,0.1,22.5,0.1c12.2,0.1,22.1,10,22.2,22.2V25c0,0.5-0.3,1-0.8,1.2c-0.2,0.1-0.3,0.1-0.5,0.1c-0.3,0-0.7-0.1-0.9-0.4 c-2.4-2.4-6.3-2.4-8.7,0c-0.5,0.5-1.3,0.5-1.9,0c-2.3-2.2-5.9-2.4-8.3-0.3v32.3h23.2l20.7-19.4c0.5-0.5,1.3-0.5,1.8,0l4,4 c0.5,0.5,0.5,1.3,0,1.8c0,0,0,0,0,0L70,47.5l4.6,10.4h3.1c0.7,0,1.3,0.6,1.3,1.3c0,0,0,0,0,0v18.4C79,78.4,78.4,79,77.7,79 C77.7,79,77.7,79,77.7,79z M73.7,76.4h2.6V65.8h-2.6V76.4z M2.6,76.4h2.6V65.8H2.6V76.4z M27.7,21.5c1.9,0,3.7,0.6,5.3,1.8 c2.7-2,6.2-2.3,9.2-0.8l0,0v-0.1C42,11.5,33.1,2.7,22.2,2.8C11.4,2.9,2.7,11.6,2.6,22.4v0.1c3-1.5,6.6-1.2,9.2,0.8 c3.1-2.3,7.4-2.3,10.5,0C23.9,22.1,25.8,21.5,27.7,21.5z M70.5,43.4l-2.1-2.1L50.7,57.9h4.1L70.5,43.4z M67.9,49.4l-9.2,8.5h13 L67.9,49.4z M76.4,60.6H2.6v2.6h73.7V60.6z M75,13.2h4v2.6h-4V13.2z M71,6.1l2.8-2.8l1.9,1.9L72.9,8L71,6.1z M75.7,23.8l-1.9,1.9 L71,22.9l1.9-1.9L75.7,23.8z M65.8,29h-2.6V25h2.6L65.8,29L65.8,29z M64.5,22.4c-4.4,0-7.9-3.5-7.9-7.9c0-4.4,3.5-7.9,7.9-7.9 s7.9,3.5,7.9,7.9l0,0C72.4,18.8,68.9,22.4,64.5,22.4L64.5,22.4z M64.5,9.2c-2.9,0-5.3,2.4-5.3,5.3c0,2.9,2.4,5.3,5.3,5.3 c2.9,0,5.3-2.4,5.3-5.3c0,0,0,0,0,0C69.8,11.6,67.4,9.2,64.5,9.2L64.5,9.2z M63.2,0h2.6v4h-2.6V0z M53.3,5.2l1.9-1.9L58,6.1L56.1,8 L53.3,5.2z M58,22.9l-2.8,2.8l-1.9-1.9l2.8-2.8L58,22.9z M50,13.2h4v2.6h-4V13.2z"></path> </svg> 