<?xml version="1.0" encoding="UTF-8"?> <!-- Generator: Adobe Illustrator 21.0.0, SVG Export Plug-In . SVG Version: 6.00 Build 0) --> <svg xmlns="http://www.w3.org/2000/svg" xmlns:xlink="http://www.w3.org/1999/xlink" version="1.1" id="trevel-infobox-4" x="0px" y="0px" viewBox="0 0 95 82" style="enable-background:new 0 0 95 82;" xml:space="preserve"> <path id="circle" style="fill:#FFD200;" d="M70,32L70,32c13.8,0,25,11.2,25,25v0c0,13.8-11.2,25-25,25h0c-13.8,0-25-11.2-25-25v0 C45,43.2,56.2,32,70,32z"></path> <path id="img" style="fill:#74BFFE;" d="M62.1,22.8v20.5c0.3,0.2,0.7,0.4,1,0.6c2.1,1.6,5,1.6,7.1,0c3.1-2.3,7.3-2.3,10.3,0 l-1.6,2.1c-2.1-1.6-5-1.6-7.1,0c-3.1,2.3-7.3,2.3-10.3,0c-2.1-1.6-5-1.6-7.1,0c-3.1,2.3-7.3,2.3-10.3,0c-2.1-1.6-5-1.6-7.1,0 c-3.1,2.3-7.3,2.3-10.3,0c-2.1-1.6-5-1.6-7.1,0c-3.1,2.3-7.3,2.3-10.3,0c-2.1-1.6-5-1.6-7.1,0l-1.6-2.1c3.1-2.3,7.3-2.3,10.3,0 c2.1,1.6,5,1.6,7.1,0c3.1-2.3,7.3-2.3,10.3,0c2.1,1.6,5,1.6,7.1,0c0.7-0.6,1.6-1,2.5-1.3V22.8H0v-2.7h37.8V8.1 c0-4.5,3.6-8.1,8.1-8.1C50.4,0,54,3.6,54,8.1v12.1h5.4V8.1C59.4,3.6,63,0,67.5,0c4.5,0,8.1,3.6,8.1,8.1v12.1H81v2.7L62.1,22.8 L62.1,22.8z M51.3,8.1c0-3-2.4-5.4-5.4-5.4s-5.4,2.4-5.4,5.4v12.1h10.8V8.1z M59.4,22.8H40.5v5.4h18.9V22.8z M59.4,30.9H40.5v5.4 h18.9V30.9z M40.5,39v3.3c1.9,0,3.7,0.6,5.2,1.7c2.1,1.6,5,1.6,7.1,0c1.9-1.4,4.3-2,6.7-1.6V39H40.5z M72.9,8.1c0-3-2.4-5.4-5.4-5.4 s-5.4,2.4-5.4,5.4v12.1h10.8V8.1z M10.9,53.3c2.1,1.6,5,1.6,7.1,0c3.1-2.3,7.3-2.3,10.3,0c2.1,1.6,5,1.6,7.1,0 c3.1-2.3,7.3-2.3,10.3,0c2.1,1.6,5,1.6,7.1,0c3.1-2.3,7.3-2.3,10.3,0c2.1,1.6,5,1.6,7.1,0c3.1-2.3,7.3-2.3,10.3,0l-1.6,2.1 c-2.1-1.6-5-1.6-7.1,0c-3.1,2.3-7.3,2.3-10.3,0c-2.1-1.6-5-1.6-7.1,0c-3.1,2.3-7.3,2.3-10.3,0c-2.1-1.6-5-1.6-7.1,0 c-3.1,2.3-7.3,2.3-10.3,0c-2.1-1.6-5-1.6-7.1,0c-3.1,2.3-7.3,2.3-10.3,0c-2.1-1.6-5-1.6-7.1,0l-1.6-2.1C3.6,51,7.8,51,10.9,53.3 L10.9,53.3z M10.9,62.7c2.1,1.6,5,1.6,7.1,0c3.1-2.3,7.3-2.3,10.3,0c2.1,1.6,5,1.6,7.1,0c3.1-2.3,7.3-2.3,10.3,0 c2.1,1.6,5,1.6,7.1,0c3.1-2.3,7.3-2.3,10.3,0c2.1,1.6,5,1.6,7.1,0c3.1-2.3,7.3-2.3,10.3,0l-1.6,2.1c-2.1-1.6-5-1.6-7.1,0 c-3.1,2.3-7.3,2.3-10.3,0c-2.1-1.6-5-1.6-7.1,0c-3.1,2.3-7.3,2.3-10.3,0c-2.1-1.6-5-1.6-7.1,0c-3.1,2.3-7.3,2.3-10.3,0 c-2.1-1.6-5-1.6-7.1,0c-3.1,2.3-7.3,2.3-10.3,0c-2.1-1.6-5-1.6-7.1,0l-1.6-2.1C3.6,60.4,7.8,60.4,10.9,62.7L10.9,62.7z M10.9,72.1 c2.1,1.6,5,1.6,7.1,0c3.1-2.3,7.3-2.3,10.3,0c2.1,1.6,5,1.6,7.1,0c3.1-2.3,7.3-2.3,10.3,0c2.1,1.6,5,1.6,7.1,0 c3.1-2.3,7.3-2.3,10.3,0c2.1,1.6,5,1.6,7.1,0c3.1-2.3,7.3-2.3,10.3,0l-1.6,2.1c-2.1-1.6-5-1.6-7.1,0c-3.1,2.3-7.3,2.3-10.3,0 c-2.1-1.6-5-1.6-7.1,0c-3.1,2.3-7.3,2.3-10.3,0c-2.1-1.6-5-1.6-7.1,0c-3.1,2.3-7.3,2.3-10.3,0c-2.1-1.6-5-1.6-7.1,0 c-3.1,2.3-7.3,2.3-10.3,0c-2.1-1.6-5-1.6-7.1,0l-1.6-2.1C3.6,69.8,7.8,69.8,10.9,72.1L10.9,72.1z"></path> </svg> 