<?xml version="1.0" encoding="UTF-8"?> <!-- Generator: Adobe Illustrator 21.0.0, SVG Export Plug-In . SVG Version: 6.00 Build 0) --> <svg xmlns="http://www.w3.org/2000/svg" xmlns:xlink="http://www.w3.org/1999/xlink" version="1.1" id="trevel-infobox-3" x="0px" y="0px" viewBox="0 0 96 97" style="enable-background:new 0 0 96 97;" xml:space="preserve"> <path id="circle" style="fill:#FFD200;" d="M71,47L71,47c13.8,0,25,11.2,25,25l0,0c0,13.8-11.2,25-25,25l0,0c-13.8,0-25-11.2-25-25 l0,0C46,58.2,57.2,47,71,47z"></path> <path id="img" style="fill:#74BFFE;" d="M0,66.4v-2.8h12.3c3-4.5,8.6-8.3,15.4-10.4c-0.2-7.2-1.8-14.4-4.8-21l-3.7,11.1 c-0.2,0.5-0.6,0.9-1.2,0.9c-0.1,0-0.1,0-0.2,0c-0.5,0-0.9-0.2-1.2-0.6c-0.1-0.2-3.3-5.4-1.7-10.8c0.1-0.2,0.1-0.3,0.2-0.5L9,35.8 c-0.4,0.2-1,0.2-1.4,0c-0.4-0.3-0.7-0.7-0.7-1.2c0.1-3.9,2.4-7.5,5.9-9.3c0.4-0.2,0.9-0.5,1.3-0.6l-7.7-2.6c-0.7-0.3-1.1-1-0.9-1.8 c0.1-0.3,0.3-0.5,0.5-0.7c3.3-2.4,7.6-2.9,11.5-1.6c1.1,0.4,2.2,1,3.2,1.8c0-1.9,0.4-3.7,1.2-5.4c2.5-4.8,7.9-6,8.1-6.1 c0.7-0.2,1.5,0.3,1.7,1c0.1,0.3,0,0.6-0.1,0.8l-3,7.3C32,16.1,35.8,16.3,39,18c0.8-0.9,1.8-1.6,2.8-2.2c0.1,0,0.1,0,0.2-0.1 l-6.5-2.1c-0.5-0.2-0.9-0.6-0.9-1.1c-0.1-0.5,0.1-1,0.6-1.3c3-2.2,6.9-2.9,10.6-1.9l-4.1-7.3c-0.4-0.7-0.1-1.5,0.5-1.9 C42.5,0,42.8,0,43,0c0.2,0,5.8,0.8,8.9,5.4c1,1.6,1.7,3.4,1.9,5.3c3.8-4,9.8-4.9,14.6-2.2c0.5,0.3,0.7,0.7,0.7,1.3 c0,0.5-0.3,1-0.8,1.2l-7.3,3.6c0.5,0.1,0.9,0.3,1.3,0.5c3.6,1.3,6.2,4.6,6.7,8.4c0.1,0.5-0.1,1-0.5,1.3c-0.2,0.2-0.5,0.3-0.8,0.3 c-0.2,0-0.3,0-0.5-0.1l-6.6-2.5c0.1,0.2,0.2,0.4,0.3,0.6c2.3,5.1-0.2,10.6-0.3,10.9c-0.2,0.5-0.7,0.8-1.2,0.8h0 c-0.5,0-1-0.3-1.2-0.7l-4.8-9c-3,8.7-4.3,17.9-3.7,27.1c9.3,1.6,17,5.9,20.9,11.7H83v2.8L0,66.4L0,66.4z M10.2,32l9.8-5.3l-0.4-0.1 c-0.3,0-0.6-0.1-0.9-0.1c-1.6,0-3.2,0.5-4.6,1.3C12.4,28.6,11,30.2,10.2,32z M16.6,20.6c-2-0.7-4.1-0.8-6.1-0.1l9.7,3.3 c0.2,0,0.4,0.1,0.7,0.1C19.8,22.4,18.4,21.3,16.6,20.6z M17.8,33.7c-0.5,1.7-0.5,3.5,0,5.3l3.2-9.5C19.5,30.4,18.4,31.9,17.8,33.7 L17.8,33.7z M65.6,21.2c-0.9-1.7-2.4-3-4.2-3.7c-1.8-0.7-3.7-0.9-5.6-0.4l-0.3,0.2L65.6,21.2z M59.1,29.5c0.3-1.8,0.1-3.7-0.6-5.5 c-0.7-1.5-1.9-2.8-3.3-3.6c-0.1,0.3-0.3,0.6-0.4,1L59.1,29.5z M54.9,14.5l9.4-4.6c-0.1,0-0.2,0-0.3,0c-3.9-0.6-7.8,1.3-9.6,4.8 C54.5,14.6,54.7,14.5,54.9,14.5L54.9,14.5z M24.4,15.7c-0.9,1.9-1.2,4.1-0.7,6.2c0.1-0.3,0.3-0.5,0.5-0.7l3.7-8.9 C26.4,13.1,25.2,14.3,24.4,15.7L24.4,15.7z M33.3,19.3c-1.3,0-2.6,0.3-3.8,0.9c-1.1,0.5-2.1,1.3-2.8,2.3l-0.4,0.9 c0.2-0.1,0.5-0.2,0.7-0.2l8.1-3.7C34.5,19.4,33.9,19.3,33.3,19.3z M33.5,23.3c0.3,0.1,0.6,0.2,0.9,0.3c0.6,0.2,1.1,0.5,1.7,0.8 c0.1-0.9,0.3-1.7,0.7-2.5L33.5,23.3z M33.4,26.2c-1.8-0.6-3.7-0.8-5.6-0.3l-0.1,0.1c0.1,0.2,0.3,0.4,0.4,0.7l9.5,3 C36.7,28,35.2,26.8,33.4,26.2z M38.3,26c1.6,1.5,2.7,3.4,3.2,5.5c0.1,0.5,0,1-0.4,1.4c-0.3,0.2-0.6,0.4-0.9,0.4 c-0.1,0-0.3,0-0.4-0.1l-9.6-3c3.2,6.8,5.1,14,5.6,21.5c1.9-0.2,3.8-0.4,5.8-0.4c-0.4-9.7,1.2-19.4,4.8-28.4L38.3,26z M39.4,22.6 l8.5-3.5c0.2-0.4,0.4-0.9,0.6-1.3l-0.9-0.3c-1.5-0.2-3.1,0.1-4.4,0.8C41.4,19.2,40.1,20.7,39.4,22.6z M45.2,12.1 c-1.8-0.6-3.8-0.6-5.7,0l8.6,2.7c0.2,0,0.5,0.1,0.7,0.1l-0.5-0.8C47.5,13.2,46.4,12.5,45.2,12.1z M49.7,7c-1-1.4-2.3-2.5-3.9-3.3 l4.9,8.8c0.2,0.2,0.3,0.4,0.5,0.6C51.3,10.9,50.8,8.8,49.7,7z M52.7,19.2l-1.2-0.5c0,0,0,0,0,0s0,0,0,0c0,0,0,0-0.1,0l-0.2-0.1 c-5.1,10.1-7.5,21.3-6.9,32.6c0.9,0,1.9,0.1,2.8,0.2C46.4,40.4,48.3,29.4,52.7,19.2z M41.5,54c-1.9,0-3.8,0.1-5.6,0.4 c0.1,1.2,0.1,2.5,0.1,3.8h-2.8c0-20.1-7.9-30.9-8-31l0.1-0.1l-0.9,0.4c0,0-0.1,0.1-0.1,0.1l-0.4,0.2c1.9,3.2,7.8,14.8,6.6,31.8 l-2.8-0.2c0.1-1.1,0.1-2.2,0.1-3.3c-4.6,1.4-8.7,4-12,7.5h51.4C62.2,57.8,52.3,54,41.5,54z M41.5,60.9h-2.8v-2.8h2.8V60.9z M48.4,59.5h-2.8v-2.8h2.8V59.5z M55.3,60.9h-2.8v-2.8h2.8V60.9z M27.7,71.9H12.5v-2.8h15.2V71.9z M37.4,77.5h-18v-2.8h18V77.5z M48.4,83H33.2v-2.8h15.2L48.4,83L48.4,83z M40.1,74.7h22.1v2.8H40.1V74.7z M30.4,69.2h38.7v2.8H30.4V69.2z"></path> </svg> 